<?xml version="1.0" encoding="UTF-8"?>
<svg viewBox="0 0 373.8064 371.54181" xmlns="http://www.w3.org/2000/svg">
 <path transform="translate(-56.016 -16.252)" d="m277 386.96c-4.125-0.40478-9.0062-1.218-10.847-1.8071-3.46-1.1073-13.023-6.8022-14.479-8.6223-0.55288-0.6912-0.9939-0.61936-1.3333 0.21718-0.66747 1.645-3.1952 1.5744-6.5646-0.18341-1.9628-1.0239-8.8099-1.6224-24.5-2.1415-11.977-0.39624-22.226-0.6781-22.776-0.62636s-8.5375 0.41225-17.75 0.80114c-14.541 0.61379-16.75 0.50908-16.75-0.7938 0-1.0027 3.8997-2.9433 11.75-5.8469 13.054-4.8283 21.86-9.3263 23.137-11.817 1.9097-3.7259 2.0159-10.468 0.20612-13.085-0.97257-1.4064-2.3418-4.6658-3.0428-7.2431s-1.9276-4.9366-2.7258-5.2429-1.1677-1.0158-0.82106-1.5767-0.0748-2.4332-0.93662-4.1607-1.5669-3.9452-1.5669-4.9282-0.39188-2.0295-0.87084-2.3256-1.1427-1.8976-1.475-3.559c-0.35528-1.7764-1.2324-3.0208-2.1292-3.0208-1.7302 0-2.0788-1.6487-0.46261-2.1875 1.4278-0.47594-0.5714-5.8474-2.8574-7.6773-1.0505-0.84085-1.2819-1.5257-0.60298-1.784 1.101-0.41887 0.20709-6.1973-1.6787-10.851-1.1656-2.8767-2.7182-16.304-2.9244-25.291-0.43993-19.175-0.16604-17.744-3.3324-17.408-2.5349 0.26922-2.7622 0.0584-2.1568-2 2.2443-7.6305 18.925-38.63 24.533-45.593 2.4527-3.0453 2.6167-3.8377 2.1854-10.559-1.1306-17.618 3.9466-35.348 13.622-47.571 8.4778-10.71 11.675-14.078 13.362-14.078s2.2161-1.4318 1.8654-5.1033c-0.0842-0.88181 0.25167-3.405 0.74646-5.6072 0.60999-2.7148 0.53209-4.6906-0.24197-6.137-1.123-2.0984-1.6937-2.1407-35.112-2.6038-35.331-0.48952-62.361-1.3632-63.475-2.0516-0.35602-0.22002-4.6631-0.68592-9.5714-1.0353s-11.624-1.2259-14.924-1.9478c-5.8634-1.2827-12.66-2.318-19.564-2.9801-1.8898-0.18125-5.7994-0.86301-8.6879-1.515-4.236-0.95617-5.3692-1.6529-5.8584-3.6022-0.63424-2.527-1.8386-3.1175-2.8898-1.4167-1.025 1.6585-6.0771 1.1248-7.845-0.82874-1.785-1.9724-2.2367-5.1713-0.73018-5.1713 0.50865 0 2.6618-1.8256 4.7848-4.0568 2.4342-2.5583 5.3247-4.4265 7.8252-5.0578 2.1808-0.55053 7.5652-1.8521 11.965-2.8924s9.35-2.5628 11-3.3834c4.3344-2.1556 7.8169-2.7492 18.519-3.1564 5.5138-0.20979 11.075-1.0125 13.218-1.9077 2.0344-0.85005 5.9309-1.5455 8.6588-1.5455s8.2548-0.42152 12.282-0.93672 14.747-1.1792 23.822-1.4754c9.2824-0.30307 19.206-1.194 22.686-2.0366 6.4734-1.5676 26.211-2.351 28.204-1.1194 0.63541 0.3927 3.2827 0.03321 5.8828-0.79888 7.3791-2.3614 19.758-3.9737 24.459-3.1856 16.223 2.7197 26.03 3.3821 41.769 2.8211 12.133-0.43246 17.021-0.20724 22.5 1.0366 4.1997 0.95341 12.401 1.6586 20.5 1.7628 38.158 0.49082 40.332 0.61908 46.5 2.7433 3.8128 1.3132 9.6454 2.245 16 2.5562 5.5 0.26934 11.267 0.97189 12.815 1.5612s4.6983 1.0789 7 1.088c5.1052 0.02007 12.063 3.6942 12.482 6.5917 0.20803 1.4367-0.86013 2.8563-3.5538 4.723-2.1181 1.4679-4.1299 2.6689-4.4705 2.6689s-1.8914 1.2584-3.4462 2.7964c-1.8877 1.8673-4.8204 3.2422-8.8269 4.138-3.3 0.73788-10.5 2.3742-16 3.6362-22.711 5.2114-28.831 6.4296-32.326 6.4349-2.021 0.0031-5.2495 0.42032-7.1745 0.92723s-8.675 1.236-15 1.6201c-6.325 0.38414-13.075 0.813-15 0.95302-8.9072 0.64791-48.089 2.5624-53 2.5896-9.4224 0.0523-15 0.96883-15 2.465 0 0.75506-1.575 2.9478-3.5 4.8728-4.6469 4.647-4.447 5.4848 0.3939 1.6507 2.1416-1.6962 4.9766-3.084 6.3-3.084s2.9069-0.50079 3.519-1.1129c1.4681-1.4681 3.2871-0.26615 3.2871 2.1719 0 1.0675 0.675 1.941 1.5 1.941 0.827 0 1.5 0.88611 1.5 1.975 0 1.6472 0.48263 1.8785 2.9078 1.3934 2.2875-0.45751 3.1483-0.13222 4.0352 1.525 0.64266 1.2008 2.1122 2.1066 3.4179 2.1066 3.5362 0 7.0879 4.406 6.8152 8.4546-0.12575 1.8672 0.23318 3.6803 0.79762 4.0292 1.5452 0.95501 1.233 8.0998-0.41371 9.4664-2.1724 1.803-2.2899 5.3584-0.23354 7.071 2.3608 1.9662 1.5236 5.5408-2.2412 9.5692-2.1804 2.3331-2.6975 3.6918-2.3377 6.1433s-0.12956 3.7392-2.1881 5.7978l-2.6501 2.6501 2.1673 4.477c1.192 2.4623 3.0124 5.0048 4.0453 5.6498s1.878 1.9039 1.878 2.7974 0.94935 2.8315 2.1097 4.3066c2.7618 3.511 6.8808 11.669 6.8861 13.638 2e-3 0.8525 0.43888 1.9847 0.97017 2.516 1.7156 1.7156 2.8461 37.545 1.4885 47.173-0.69084 4.8994-2.651 8.9041-5.3333 10.896-1.1373 0.84475-1.5649 3.2785-1.669 9.5-0.077 4.6004-0.65884 9.6275-1.293 11.171-0.68637 1.6709-0.74595 2.5555-0.14718 2.1854 1.5726-0.97194 4.988 0.47983 4.988 2.1202 0 2.5968-4.6997 6.3872-7.9194 6.3872-1.9868 0-3.3742 0.67998-4.0806 2-0.90739 1.6955-0.76049 2 0.96482 2 2.3872 0 2.7531 1.7053 0.46703 2.1767-1.2017 0.24777-1.6769 2.063-2.0334 7.7682l-0.46527 7.4449 3.7151 3.3051c2.0433 1.8178 3.9708 3.3564 4.2834 3.4192s1.8655 0.26534 3.451 0.45028 3.8354 1.1902 5 2.234 4.6715 3.33 7.7931 5.0806c6.7926 3.8092 9.3939 8.3375 10.409 18.121 0.37111 3.575 1.2912 7.3876 2.0448 8.4725 2.0159 2.9025 1.6812 5.3072-1.13 8.1184-1.375 1.375-2.5 2.5953-2.5 2.7118s2.0664 0.0474 4.592-0.15346c5.2377-0.41658 8.083 1.2136 3.9352 2.2546-1.4406 0.36156-3.0014 0.4212-3.4684 0.13253s-1.1073 0.14756-1.4226 0.9694c-0.61739 1.6089-5.6362 2.1082-5.6362 0.56068 0-0.51347 1.2375-1.121 2.75-1.3502l2.75-0.41659-2.882-0.14983c-1.5851-0.0824-4.5101 0.86267-6.5 2.1002l-3.618 2.25 12.25 0.28078c7.0475 0.16153 12.25 0.6924 12.25 1.25 0 0.53307-0.6375 0.96922-1.4167 0.96922s-1.5698 0.45932-1.7569 1.0207c-0.21303 0.63909-7.1609 1.0617-18.583 1.1303-10.034 0.0603-18.243 0.3948-18.243 0.7434s1.8216 1.423 4.048 2.3875c7.9149 3.429 2.4681 4.3991-15.048 2.6803zm29.541-7.8956c-0.53633-0.86781-22.497-0.36032-23.458 0.54208-0.22916 0.21526 5.0849 0.39138 11.809 0.39138 7.3148 0 11.994-0.37496 11.649-0.93346zm5.4589 0.14626c0-0.43295-0.9-0.85499-2-0.93785s-2 0.27138-2 0.7872 0.9 0.93785 2 0.93785 2-0.35424 2-0.7872zm3.4899-0.22911c-0.34546-0.55897-1.047-0.75742-1.559-0.44098-1.387 0.85723-1.1284 1.4573 0.62812 1.4573 0.85746 0 1.2764-0.45734 0.9309-1.0163zm-32.759-2.6767c-0.97297-0.25354-2.323-0.23687-3 0.0371s0.11903 0.48137 1.769 0.46099 2.2039-0.2445 1.231-0.49804v-5e-5zm2.599-2.2187c-3.9435-0.32357-7.5435-0.97959-8-1.4578-0.46872-0.49103 2.4025-0.65848 6.596-0.38468 6.6891 0.43673 7.2349 0.33876 5.5-0.98721-1.0593-0.80963-3.3578-2.0922-5.1077-2.8502s-3.4624-1.8325-3.8057-2.3879-1.499-1.478-2.5684-2.0503c-1.7199-0.92046-1.9443-0.70273-1.9443 1.8864 0 2.6862 0.39069 3.0084 4.75 3.917l4.75 0.98997-5.1615 0.11821c-5.0657 0.11603-5.4581 0.45985-4.415 3.8682 0.0421 0.1375 3.789 0.17724 8.3265 0.0883l8.25-0.1617-7.17-0.5883zm19.42-1.3552c1.672-1.3082 1.5851-2.7331-0.16667-2.7331-0.77916 0-1.675-0.5625-1.9908-1.25s-0.30132-0.16943 0.0321 1.1513c0.48632 1.9265 0.28677 2.2787-1.0092 1.7814-0.8885-0.34094-1.6154-0.44582-1.6154-0.23306s-0.26055 1.0658-0.57899 1.8956c-0.44612 1.1626-0.0445 1.3777 1.75 0.93735 1.2809-0.3143 2.8915-1.0116 3.579-1.5495zm-6.75-1.4044c0-0.91919 0.70573-2.4511 1.5683-3.4042 1.2905-1.426 1.3475-2.0864 0.32176-3.729-0.68559-1.0978-1.7822-1.7905-2.4369-1.5392s-1.4324-0.46868-1.7282-1.5998c-0.69176-2.6453-1.8985-2.6097-3.5946 0.10612-1.2065 1.9319-1.0988 2.3564 1.0094 3.9778 3.1931 2.4558 0.8366 2.3288-4.6508-0.25057-4.8084-2.2602-6.2615-4.5142-1.8221-2.8264 1.9892 0.7563 2.8748 0.68648 3.4847-0.27476 1.3217-2.0832 0.97367-3.8074-0.90172-4.4678-9.4685-3.3343-11.131-5.5511-2.1671-2.889 6.4642 1.9197 5.9171 1.9596 5.9171-0.43197 0-1.1-0.48214-2-1.0714-2s-1.8067-0.73527-2.7054-1.6339c-1.071-1.071-1.7642-1.2432-2.0119-0.5-0.52187 1.5656-2.2113 1.4296-2.2113-0.17801 0-1.4084-6.0044-6.3141-7.25-5.9233-1.0636 0.33365-0.91991-2.6126 0.35063-7.1887 0.99842-3.5961 0.8935-4.0747-1.2556-5.7278l-2.345-1.8038 2.8333-0.0222c1.8287-0.0144 2.677-0.46545 2.3924-1.2722-0.24252-0.6875-1.18-1.1875-2.0833-1.1111-1.3372 0.11308-1.6424-0.86255-1.6424-5.25 0-5.3921-1.462-7.3766-2.3124-3.1389-0.24834 1.2375-0.41063-0.54349-0.36065-3.9578s-0.22812-6.5268-0.61802-6.9167-0.70891 0.49106-0.70891 1.9577-0.48955 2.6667-1.0879 2.6667c-0.71469 0-0.86596-1.458-0.44095-4.25 0.47095-3.0939 0.36301-3.842-0.39679-2.75-1.5073 2.1662-1.3116 11.213 0.29263 13.527 2.5053 3.6151 4.4114 12.852 5.0502 24.473 0.81433 14.816 2.7722 19.247 10.165 23.005 2.7952 1.421 6.3952 3.5619 8 4.7576 3.5393 2.637 4.4179 2.7496 4.4179 0.56613zm-63.75-1.061c-2.3375-0.21053-6.1625-0.21053-8.5 0s-0.425 0.3828 4.25 0.3828 6.5875-0.17226 4.25-0.3828zm19.112-0.76779c0.31658-0.825 0.13972-1.5-0.39301-1.5s-0.96862 0.675-0.96862 1.5 0.17686 1.5 0.39301 1.5 0.65203-0.675 0.96862-1.5zm3.3006-1.75c-0.27741-0.6875-0.50439-0.125-0.50439 1.25s0.22698 1.9375 0.50439 1.25 0.27741-1.8125 0-2.5zm-52.931 1.557c-0.97297-0.25354-2.323-0.23687-3 0.0371s0.11903 0.48137 1.769 0.46099 2.2039-0.2445 1.231-0.49804v-5e-5zm56.873-2.0362c-0.33229-0.33229-0.56864 0.25834-0.52522 1.3125 0.048 1.165 0.28494 1.4019 0.60416 0.60417 0.28887-0.72188 0.25335-1.5844-0.0789-1.9167h-4e-5zm52.173-0.21446c3.7133-3.3916 3.7108-3.3821 1.7264-6.4106-0.82303-1.2561-1.7866-5.1778-2.1413-8.7148-0.82706-8.248-3.3964-13.296-8.363-16.431-2.1778-1.3748-4.2334-2.4996-4.568-2.4996s2.1314 2.9901 5.4801 6.6446c5.9084 6.448 7.4128 8.967 4.8386 8.102-1.5473-0.51989-3.6837 7.0858-2.619 9.3237 0.5315 1.1172-0.0835 2.061-2.1308 3.2704-2.7209 1.6073-2.9317 1.6039-3.864-0.0621-0.54237-0.96915-1.2901-1.4581-1.6617-1.0866s0.253 1.6722 1.3879 2.8904l2.0635 2.2148 4.9585-2.0607c2.7272-1.1334 5.215-1.8042 5.5284-1.4908 0.80401 0.80401-1.4007 3.2539-2.9282 3.2539-0.69881 0-1.5162 0.64007-1.8164 1.4224-0.34564 0.90072-1.3434 1.2138-2.7205 0.85369-1.9592-0.51235-2.0609-0.35607-1.026 1.5776 1.574 2.941 4.0362 2.6911 7.8554-0.79732v4e-5zm-73.322-0.8001c0.33693-0.878 0.0897-1.9195-0.5494-2.3145s-0.88859-1.1605-0.55446-1.7011-0.50632-3.1785-1.8677-5.8618-2.4771-5.3862-2.4794-6.0064c-6e-3 -1.5442-2.8891-3.8209-3.7494-2.9606-0.38328 0.38328-0.0371 1.1046 0.7693 1.603 1.2386 0.76546 1.1564 1.1357-0.52896 2.3847-1.7224 1.2765-1.8198 1.7656-0.71245 3.5782 1.0698 1.7512 1.0283 2.354-0.25 3.6323-0.84298 0.84297-1.5327 2.6255-1.5327 3.9612 0 1.9082-0.52308 2.4286-2.441 2.4286-2.4645 0-4.0649 1.3682-3.2166 2.75 0.25322 0.4125 4.0694 0.60435 8.4803 0.42632 6.217-0.25091 8.1576-0.68254 8.6325-1.92zm10.545-3.1972c0-0.51754-0.45-1.2191-1-1.559s-1 0.0835-1 0.94098 0.45 1.559 1 1.559 1-0.42344 1-0.94098zm2.6042-2.7882c-0.3323-0.33229-0.56864 0.25834-0.52522 1.3125 0.048 1.165 0.28494 1.4019 0.60416 0.60417 0.28887-0.72188 0.25335-1.5844-0.0789-1.9167h-4e-5zm4.3958 0.72917c0-0.55-0.45-1-1-1s-1 0.45-1 1 0.45 1 1 1 1-0.45 1-1zm3.4573-1.0691c-0.85723-1.387-1.4573-1.1284-1.4573 0.62812 0 0.85746 0.45734 1.2764 1.0163 0.9309s0.75742-1.047 0.44098-1.559zm3.7427-1.1309c-0.93333-0.93333-1.2-0.66667-1.2 1.2s0.26667 2.1333 1.2 1.2 0.93333-1.4667 0-2.4zm-48.2 1.2c0-0.55-0.45-1-1-1s-1 0.45-1 1 0.45 1 1 1 1-0.45 1-1zm56-0.0962c0-0.36881-0.9-0.90592-2-1.1936-1.2675-0.33146-2-0.0307-2 0.82122 0 0.73933 0.9 1.2764 2 1.1936s2-0.45241 2-0.82122zm1.6042-1.633c-0.33229-0.33229-0.56864 0.25834-0.52522 1.3125 0.048 1.165 0.28494 1.4019 0.60416 0.60417 0.28887-0.72188 0.25335-1.5844-0.0789-1.9167h-4e-5zm-62.104 0.7292c-0.33992-0.55-0.81648-1-1.059-1s-0.44098 0.45-0.44098 1 0.47656 1 1.059 1 0.7809-0.45 0.44098-1zm33.862-0.5c-0.31659-0.825-0.75246-1.5-0.96862-1.5s-0.39301 0.675-0.39301 1.5 0.43588 1.5 0.96862 1.5 0.70959-0.675 0.39301-1.5zm-37.862-0.5c-0.33992-0.55-0.81648-1-1.059-1s-0.44098 0.45-0.44098 1 0.47656 1 1.059 1 0.7809-0.45 0.44098-1zm41.5 0.059c0-0.51754-0.45-1.2191-1-1.559s-1 0.0835-1 0.94098 0.45 1.559 1 1.559 1-0.42344 1-0.94098zm55-0.43658c0-1.6619-2.433-3.8561-3.3068-2.9823-0.81298 0.813 1.0923 4.3599 2.342 4.3599 0.53065 0 0.96482-0.6199 0.96482-1.3776v-2e-5zm-85-0.62242c0-0.55-0.47656-1-1.059-1s-0.7809 0.45-0.44098 1 0.81648 1 1.059 1 0.44098-0.45 0.44098-1zm34 0c0-0.55-0.45-1-1-1s-1 0.45-1 1 0.45 1 1 1 1-0.45 1-1zm44.771-0.1875c-0.61807-1.8542-2.7708-2.1618-2.7708-0.39583 0 0.87083 0.7125 1.5833 1.5833 1.5833s1.4052-0.53438 1.1875-1.1875zm-81.771-1.3715c0-0.24254-0.45-0.44098-1-0.44098s-1 0.47656-1 1.059 0.45 0.7809 1 0.44098 1-0.81648 1-1.059zm40.5 0.55902c-0.33992-0.55-0.81648-1-1.059-1s-0.44098 0.45-0.44098 1 0.47656 1 1.059 1 0.7809-0.45 0.44098-1zm-44.5-1c0-0.55-0.45-1-1-1s-1 0.45-1 1 0.45 1 1 1 1-0.45 1-1zm31.588-2.7449c-1.0755-1.0755-1.6464 0.43075-0.89148 2.3518 0.7082 1.8021 0.76169 1.8052 1.1119 0.0649 0.20237-1.0056 0.10317-2.093-0.22045-2.4167v-4e-5zm26.412 2.7449c0-0.55-0.45-1-1-1s-1 0.45-1 1 0.45 1 1 1 1-0.45 1-1zm4-0.16667c0-0.45833-0.675-0.83333-1.5-0.83333s-1.5 0.375-1.5 0.83333 0.675 0.83334 1.5 0.83334 1.5-0.375 1.5-0.83334zm-25.57-0.72002c0.30141-0.48768-0.12204-1.4428-0.94098-2.1224-1.2391-1.0284-1.489-0.87956-1.489 0.8867 0 2.1454 1.4211 2.8681 2.43 1.2358zm4.57-1.6723c0-0.79254-0.675-1.441-1.5-1.441-1.5062 0-2.0557 2.111-0.86052 3.3062 0.93324 0.93324 2.3605-0.19452 2.3605-1.8652zm-35.396-1.1702c-0.3323-0.33229-0.56864 0.25834-0.52522 1.3125 0.048 1.165 0.28494 1.4019 0.60416 0.60417 0.28887-0.72188 0.25335-1.5844-0.0789-1.9167h-4e-5zm38.896 0.72917c0-0.73333-0.5625-1.5208-1.25-1.75-0.74359-0.24786-1.25 0.46111-1.25 1.75s0.50641 1.9979 1.25 1.75c0.6875-0.22917 1.25-1.0167 1.25-1.75zm42.834 0.57311c0.70259-1.8309-1.8558-4.1551-2.8332-2.5738-0.82404 1.3333 0.0835 4.0007 1.3612 4.0007 0.50841 0 1.1708-0.6421 1.4719-1.4269zm6.6664-1.5155c0-1.0034-0.9-2.0597-2-2.3474-2.2688-0.5933-2.8209 2.0689-0.83992 4.0498 1.4747 1.4747 2.8399 0.65634 2.8399-1.7025zm-91 0.94239c0-0.55-0.47656-1-1.059-1s-0.7809 0.45-0.44098 1 0.81648 1 1.059 1 0.44098-0.45 0.44098-1zm44.362-0.5c-0.31659-0.825-0.75246-1.5-0.96862-1.5s-0.39301 0.675-0.39301 1.5 0.43588 1.5 0.96862 1.5 0.70959-0.675 0.39301-1.5zm4.6384-0.58333c0-2.437-2.3368-2.0926-2.8233 0.4162-0.19138 0.98676 0.31876 1.6671 1.25 1.6671s1.5733-0.855 1.5733-2.0833zm-56.5 0.08333c-0.33992-0.55-0.81648-1-1.059-1s-0.44098 0.45-0.44098 1 0.47656 1 1.059 1 0.7809-0.45 0.44098-1zm62.167-0.5c0-0.74283-0.825-1.2884-1.8333-1.2125s-1.8333 0.62157-1.8333 1.2125 0.825 1.1365 1.8333 1.2125 1.8333-0.46966 1.8333-1.2125zm2.7906-0.5691c-0.85723-1.387-1.4573-1.1284-1.4573 0.62812 0 0.85746 0.45734 1.2764 1.0163 0.9309s0.75742-1.047 0.44098-1.559zm22.543-2.0489c0-1.1-0.45-1.7219-1-1.382s-1 1.518-1 2.618 0.45 1.7219 1 1.382 1-1.518 1-2.618zm-55.638 0.61803c-0.31659-0.825-0.75246-1.5-0.96862-1.5s-0.39301 0.675-0.39301 1.5 0.43588 1.5 0.96862 1.5 0.70959-0.675 0.39301-1.5zm3.6384 0c0-0.825-0.45-1.5-1-1.5s-1 0.675-1 1.5 0.45 1.5 1 1.5 1-0.675 1-1.5zm4.3129-1.5871c-1.3278-1.3278-2.7993 0.49104-1.759 2.1743 0.48382 0.78285 0.97617 0.78285 1.759 0s0.78284-1.3914 0-2.1743zm-40.709-0.64204c-0.3323-0.33229-0.56864 0.25834-0.52522 1.3125 0.048 1.165 0.28494 1.4019 0.60416 0.60417 0.28887-0.72188 0.25335-1.5844-0.0789-1.9167h-4e-5zm4.3958 1.7882c0-0.51754-0.45-1.2191-1-1.559s-1 0.0835-1 0.94098 0.45 1.559 1 1.559 1-0.42344 1-0.94098zm2.6042-1.7882c-0.3323-0.33229-0.56864 0.25834-0.52522 1.3125 0.048 1.165 0.28494 1.4019 0.60416 0.60417 0.28887-0.72188 0.25335-1.5844-0.0789-1.9167h-4e-5zm4.3958 1.7292c0-0.55-0.45-1-1-1s-1 0.45-1 1 0.45 1 1 1 1-0.45 1-1zm34 0.059c0-0.51754-0.45-1.2191-1-1.559s-1 0.0835-1 0.94098 0.45 1.559 1 1.559 1-0.42344 1-0.94098zm4-1.118c0-0.51752-0.45-0.94096-1-0.94096s-1 0.70156-1 1.559 0.45 1.2809 1 0.94098 1-1.0415 1-1.559v-2e-5zm34.984-2.9507c-1.8092-1.1181-2.9843-0.33639-2.9843 1.9854 0 2.5999 2.3092 3.1452 3.4366 0.81157 0.66851-1.3837 0.53907-2.1843-0.45225-2.7969v-2e-5zm10.016 4.1322c0-1.3034-2.5828-3.2063-3.3333-2.4558s1.1524 3.3333 2.4558 3.3333c0.48266 0 0.87756-0.3949 0.87756-0.87756zm-37.188-2.0599c0.25-0.75-0.125-1.125-0.875-0.875-0.72188 0.24063-1.5094 1.0281-1.75 1.75-0.25 0.75 0.125 1.125 0.875 0.875 0.72187-0.24063 1.5094-1.0281 1.75-1.75zm5.6448-1.1316c-0.85723-1.387-1.4573-1.1284-1.4573 0.62812 0 0.85746 0.45734 1.2764 1.0163 0.9309s0.75742-1.047 0.44098-1.559zm2.1469-0.66007c-0.33229-0.33229-0.56864 0.25834-0.52522 1.3125 0.048 1.165 0.28494 1.4019 0.60416 0.60417 0.28887-0.72188 0.25335-1.5844-0.0789-1.9167h-4e-5zm35.396 1.4292c0-1.441-1.9538-3.7-3.2-3.7-0.96627 0-1.0708 3.3959-0.13333 4.3333 1.1448 1.1449 3.3333 0.72905 3.3333-0.63333zm-20.46-1.8248c0.83338-2.6257-1.5851-4.5452-2.8589-2.2691-0.96501 1.7244-0.22347 4.3939 1.2205 4.3939 0.5302 0 1.2675-0.95618 1.6384-2.1248zm-68.54-0.43417c0-0.24254-0.45-0.44098-1-0.44098s-1 0.47656-1 1.059 0.45 0.7809 1 0.44098 1-0.81648 1-1.059zm20.104-0.73718c-1.2835-1.2835-2.585-0.2915-1.6348 1.246 0.36808 0.59556 1.1274 0.79971 1.6873 0.45366 0.683-0.42212 0.66575-0.98146-0.0524-1.6996h-3e-5zm4.1462 0.87953c0.1375-0.50416-0.3125-1.1042-1-1.3333s-1.25 0.33333-1.25 1.25c0 1.6934 1.7928 1.7598 2.25 0.0833v3e-5zm5.75-0.69032c0-0.49115-0.9-0.89301-2-0.89301-1.9492 0-2.606 1.0607-1.4022 2.2644 0.80111 0.80112 3.4022-0.24738 3.4022-1.3714zm47.604-0.62218c-1.0165-1.0165-1.8552 0.51389-1.0212 1.8634 0.63003 1.0194 0.86558 1.0202 1.2043 4e-3 0.2316-0.69479 0.14921-1.5351-0.18308-1.8674v4e-5zm4.8699-4.119c-1.6435-1.5441-1.714-1.5266-1.0822 0.26826 0.39264 1.1155 0.16481 2.2359-0.54373 2.6738-0.94149 0.58188-0.90055 1.1381 0.17958 2.4396 1.2817 1.5444 1.4749 1.4586 2.3018-1.022 0.70151-2.1045 0.51092-3.0759-0.85542-4.3596zm-93.974 4.8482c-0.33992-0.55-1.068-1-1.618-1s-0.72189 0.45-0.38197 1 1.068 1 1.618 1 0.72189-0.45 0.38197-1zm3.5 0c0-0.55-0.45-1-1-1s-1 0.45-1 1 0.45 1 1 1 1-0.45 1-1zm4 0c0-0.55-0.45-1-1-1s-1 0.45-1 1 0.45 1 1 1 1-0.45 1-1zm37-0.5c0-0.825-0.45-1.5-1-1.5s-1 0.675-1 1.5 0.45 1.5 1 1.5 1-0.675 1-1.5zm4 0c0-0.825-0.45-1.5-1-1.5s-1 0.675-1 1.5 0.45 1.5 1 1.5 1-0.675 1-1.5zm4 0.059c0-0.79254-0.45-1.7191-1-2.059s-1 0.30852-1 1.441 0.45 2.059 1 2.059 1-0.64844 1-1.441zm5-1.166c0-0.76613-0.9-1.393-2-1.393-2.1921 0-2.2708 0.13075-1.4172 2.3551 0.69254 1.8047 3.4172 1.0376 3.4172-0.96206v-2e-5zm-63.5 0.60701c-0.33992-0.55-0.81648-1-1.059-1s-0.44098 0.45-0.44098 1 0.47656 1 1.059 1 0.7809-0.45 0.44098-1zm69.5-1.559c0-0.79254-0.45-1.441-1-1.441s-1 0.92656-1 2.059 0.45 1.7809 1 1.441 1-1.2665 1-2.059zm11.787-0.44098c-0.24217-1.65-0.0682-3 0.3865-3s0.82681-0.9 0.82681-2c0-2.0207-1.4414-2.7128-2.4044-1.1546-0.28736 0.46496-0.82143 2.715-1.1868 5-0.56552 3.5366-0.4053 4.1546 1.077 4.1546 1.366 0 1.6464-0.64666 1.301-3zm11.213 1.107c0-1.2268-2.8173-2.2116-3.4408-1.2028-0.27766 0.44927-0.21707 1.1046 0.13464 1.4563 0.95302 0.95301 3.3062 0.77257 3.3062-0.25353zm-56.396-2.8362c-1.0165-1.0165-1.8552 0.51389-1.0212 1.8634 0.63003 1.0194 0.86558 1.0202 1.2043 4e-3 0.2316-0.69479 0.14921-1.5351-0.18308-1.8674v4e-5zm60.396 1.7292c0-0.55-0.45-1-1-1s-1 0.45-1 1 0.45 1 1 1 1-0.45 1-1zm-91.224-1.1713c-0.42907-1.2872-4.7762-1.9561-4.7762-0.73488 0 0.6716 1.8815 1.4489 4.3333 1.7902 0.45834 0.0638 0.65764-0.4111 0.44289-1.0553zm4.2238 0.23035c0-0.51754-0.45-1.2191-1-1.559s-1 0.0835-1 0.94098 0.45 1.559 1 1.559 1-0.42344 1-0.94098zm7-0.05902c0-0.55-0.675-1-1.5-1s-1.5 0.45-1.5 1 0.675 1 1.5 1 1.5-0.45 1.5-1zm3-0.059c0-0.58246-0.45-0.7809-1-0.44098s-1 0.81648-1 1.059 0.45 0.44098 1 0.44098 1-0.47656 1-1.059zm22-0.441c0-0.825-0.675-1.5-1.5-1.5s-1.5 0.675-1.5 1.5 0.675 1.5 1.5 1.5 1.5-0.675 1.5-1.5zm4.7708-0.3125c0.21982-0.65946-0.5166-1.1875-1.6561-1.1875-1.4381 0-1.8749 0.46137-1.4601 1.5423 0.65496 1.7068 2.499 1.4968 3.1162-0.35476zm4.2292-0.74652c0-0.79254-0.45-1.441-1-1.441s-1 0.92656-1 2.059 0.45 1.7809 1 1.441 1-1.2665 1-2.059zm3.5-0.27431c0-1.9576-1.9485-1.7917-2.3318 0.1985-0.23391 1.2146 0.11011 1.7087 0.98631 1.4167 0.74002-0.24667 1.3455-0.9735 1.3455-1.6152zm33.5 0.44032c0-0.76616-0.675-1.652-1.5-1.9686-1.0203-0.39152-1.5 0.054-1.5 1.393 0 1.0832 0.67464 1.9686 1.5 1.9686 0.825 0 1.5-0.62686 1.5-1.393zm-29.015-0.35699c-0.0363-1.7778-1.7466-3.4443-2.4187-2.3568-0.37621 0.60872-0.4059 1.5568-0.066 2.1068 0.72089 1.1664 2.5071 1.3461 2.4847 0.25h2e-5zm4.0153-1.25c0-1.1111-0.66667-2-1.5-2s-1.5 0.88889-1.5 2 0.66667 2 1.5 2 1.5-0.88889 1.5-2zm2.6623-2.25c-0.27741-0.6875-0.50439-0.125-0.50439 1.25s0.22698 1.9375 0.50439 1.25 0.27741-1.8125 0-2.5zm3.6783 2c0.38169-0.94068 0.76971-0.87881 1.568 0.25 0.87519 1.2375 1.0635 1.096 1.0761-0.80902 8e-3 -1.27-0.4036-2.0501-0.91559-1.7337s-1.2181 0.11065-1.5691-0.45729c-0.92667-1.4994-2.5-0.20359-2.5 2.059 0 2.1665 1.5555 2.6257 2.3405 0.69098zm-65.228-3.0375c-0.81667-0.81667-1.1125-0.70476-1.1125 0.42083 0 1.9879 1.3447 3.3326 1.8417 1.8417 0.21083-0.6325-0.1173-1.6506-0.72917-2.2625zm4.0708 1.0708c-0.71756-0.71756-1.1833-0.7766-1.1833-0.15 0 1.3348 1.1826 2.5174 1.85 1.85 0.28417-0.28416-0.0158-1.0492-0.66667-1.7zm4.8167 1.2167c0-0.55-0.70156-1-1.559-1s-1.2809 0.45-0.94098 1 1.0415 1 1.559 1 0.94098-0.45 0.94098-1zm3 0c0-0.55-0.45-1-1-1s-1 0.45-1 1 0.45 1 1 1 1-0.45 1-1zm3.5 0c-0.33992-0.55-0.81648-1-1.059-1s-0.44098 0.45-0.44098 1 0.47656 1 1.059 1 0.7809-0.45 0.44098-1zm13.5 0c0-0.55-0.47656-1-1.059-1s-0.7809 0.45-0.44098 1 0.81648 1 1.059 1 0.44098-0.45 0.44098-1zm-31.638-1.5c-0.6086-1.586-2.3616-2.0808-2.3616-0.66667 0 1.0575 1.0931 2.1667 2.1353 2.1667 0.44107 0 0.54293-0.675 0.22635-1.5zm39.638 0.5c0-0.55-0.675-1-1.5-1s-1.5 0.45-1.5 1 0.675 1 1.5 1 1.5-0.45 1.5-1zm5.4289-0.5137c-0.12655-1.7552-3.4289-1.742-3.4289 0.0137 0 1.03 0.6554 1.5204 1.75 1.3096 0.9625-0.18536 1.718-0.78086 1.6789-1.3233zm3.5711-0.4863c0-0.55-0.45-1-1-1s-1 0.45-1 1 0.45 1 1 1 1-0.45 1-1zm4-0.5c0-0.825-0.42344-1.5-0.94098-1.5-1.261 0-2.1641 1.5616-1.3652 2.3605 1.1262 1.1262 2.3062 0.68589 2.3062-0.86052zm-39.001-1.25c-4.6e-4 -1.1612-0.84163-1.7985-2.5-1.8942-1.6199-0.0935-2.4993 0.38402-2.4993 1.357 0 0.909 0.57909 1.279 1.468 0.93788 0.80739-0.30982 1.734-0.13297 2.059 0.39301 0.90008 1.4564 1.4731 1.1475 1.4723-0.79367zm3.5891-1.9949c-1.0924-1.0924-1.8415 0.64486-1.0572 2.4518 0.74368 1.7134 0.79759 1.7118 1.2119-0.0351 0.2385-1.0056 0.16886-2.093-0.15476-2.4167v-4e-5zm3.4116 2.2449c0-0.825-0.43588-1.5-0.96862-1.5s-0.70959 0.675-0.39301 1.5 0.75246 1.5 0.96862 1.5 0.39301-0.675 0.39301-1.5zm5 0c0-0.825-0.45-1.5-1-1.5s-1 0.675-1 1.5 0.45 1.5 1 1.5 1-0.675 1-1.5zm31 0.55902c0-0.51754-0.45-1.2191-1-1.559s-1 0.0835-1 0.94098 0.45 1.559 1 1.559 1-0.42344 1-0.94098zm28.5-0.05902c-0.33992-0.55-0.81648-1-1.059-1s-0.44098 0.45-0.44098 1 0.47656 1 1.059 1 0.7809-0.45 0.44098-1zm-78.838-3.25c-0.27741-0.6875-0.50439-0.125-0.50439 1.25s0.22698 1.9375 0.50439 1.25 0.27741-1.8125 0-2.5zm24.338 2.25c0-0.55-0.45-1-1-1s-1 0.45-1 1 0.45 1 1 1 1-0.45 1-1zm9-1.1166c0-0.48585-0.9-0.88337-2-0.88337s-2 0.63287-2 1.4064c0 0.91405 0.70014 1.2233 2 0.88337 1.1-0.28766 2-0.92053 2-1.4064zm21 0.61663c0-0.825-0.45-1.5-1-1.5s-1 0.675-1 1.5 0.45 1.5 1 1.5 1-0.675 1-1.5zm-58.396-2.2292c-1.0165-1.0165-1.8552 0.51389-1.0212 1.8634 0.63003 1.0194 0.86558 1.0202 1.2043 4e-3 0.2316-0.69479 0.14921-1.5351-0.18308-1.8674v4e-5zm41.831 1.834c0.3043-0.49236-0.11914-1.1532-0.94098-1.4686-0.90766-0.3483-1.4943 3e-3 -1.4943 0.89521 0 1.6174 1.5626 1.9853 2.4352 0.5734zm20.565-0.35478c0-1.1711-1.4568-0.87974-1.875 0.375-0.20625 0.61875 0.13125 0.95625 0.75 0.75s1.125-0.7125 1.125-1.125zm17.5 0.25c-0.33992-0.55-1.0415-1-1.559-1s-0.94098 0.45-0.94098 1 0.70156 1 1.559 1 1.2809-0.45 0.94098-1zm-83.5-1c0-0.55-0.45-1-1-1s-1 0.45-1 1 0.45 1 1 1 1-0.45 1-1zm87.217-2.1833c-1.5275-1.5275-2.6546-0.40039-1.8074 1.8074 0.50024 1.3036 0.93392 1.4328 1.8235 0.54313s0.88579-1.4486-0.0161-2.3506zm-33.727 1.167c-0.34546-0.55897-1.047-0.75742-1.559-0.44098-1.387 0.85723-1.1284 1.4573 0.62812 1.4573 0.85746 0 1.2764-0.45734 0.9309-1.0163zm18.51-0.98369c0-1.1-0.45-2-1-2s-1 0.9-1 2 0.45 2 1 2 1-0.9 1-2zm-45 0c0-0.55-0.45-1-1-1s-1 0.45-1 1 0.45 1 1 1 1-0.45 1-1zm4-0.55902c0-0.24254-0.70156-0.44098-1.559-0.44098s-1.2764 0.45734-0.9309 1.0163c0.57081 0.92358 2.4899 0.48015 2.4899-0.57533zm31 0c0-0.24254-0.45-0.44098-1-0.44098s-1 0.47656-1 1.059 0.45 0.7809 1 0.44098 1-0.81648 1-1.059zm-54-0.38196c0-0.51754-0.45-1.2191-1-1.559s-1 0.0835-1 0.94098 0.45 1.559 1 1.559 1-0.42344 1-0.94098zm3-0.61804c0-0.85746-0.45-1.2809-1-0.94098s-1 1.0415-1 1.559 0.45 0.94098 1 0.94098 1-0.70156 1-1.559zm4 0.059c0-0.825-0.45-1.5-1-1.5s-1 0.675-1 1.5 0.45 1.5 1 1.5 1-0.675 1-1.5zm3 0.5c0-0.55-0.45-1-1-1s-1 0.45-1 1 0.45 1 1 1 1-0.45 1-1zm3.3616-0.5c-0.31659-0.825-0.75246-1.5-0.96862-1.5s-0.39301 0.675-0.39301 1.5 0.43588 1.5 0.96862 1.5 0.70959-0.675 0.39301-1.5zm12.227-2.2449c-1.0755-1.0755-1.6464 0.43075-0.89148 2.3518 0.7082 1.8021 0.76169 1.8052 1.1119 0.0649 0.20237-1.0056 0.10317-2.093-0.22045-2.4167v-4e-5zm6.676 3.1472c1.1193-1.1193-0.47193-3.4022-2.3714-3.4022-1.2263 0-1.893 0.70435-1.893 2 0 1.9067 2.8295 2.8371 4.2644 1.4022v-2e-5zm5.0654-1.985c-0.47723-1.2436-3.3299-2.0995-3.3299-0.99901 0 1.73 1.4028 3.3645 2.5196 2.9359 0.74475-0.28579 1.1094-1.1574 0.81025-1.9369v-2e-5zm37.274-0.14641c-0.33229-0.33229-0.56864 0.25834-0.52522 1.3125 0.048 1.165 0.28494 1.4019 0.60416 0.60417 0.28887-0.72188 0.25335-1.5844-0.0789-1.9167h-4e-5zm-83.604 0.78821c0-0.51754-0.45-1.2191-1-1.559s-1 0.0835-1 0.94098 0.45 1.559 1 1.559 1-0.42344 1-0.94098zm5-0.05902c0-0.55-0.9-1-2-1s-2 0.45-2 1 0.9 1 2 1 2-0.45 2-1zm44.604-1.7292c-0.3323-0.33229-0.56864 0.25834-0.52522 1.3125 0.048 1.165 0.28494 1.4019 0.60416 0.60417 0.28887-0.72188 0.25335-1.5844-0.0789-1.9167h-4e-5zm4.6603 2.1314c0.80112-0.80111-0.24738-3.4022-1.3714-3.4022-0.49115 0-0.89301 0.9-0.89301 2 0 1.9492 1.0607 2.606 2.2644 1.4022zm3.7356-1.9022c0-0.825-0.45-1.5-1-1.5s-1 0.675-1 1.5 0.45 1.5 1 1.5 1-0.675 1-1.5zm22.506-2.2034c-0.66758-2.5412-0.80425-2.6139-1.4965-0.79657-0.41964 1.1017-0.30417 2.5723 0.25709 3.2742 1.4985 1.8739 2.0782 0.71512 1.2394-2.4776zm-17.506 1.1201c0-0.87084-0.53438-1.4052-1.1875-1.1875-1.8542 0.61807-2.1618 2.7708-0.39583 2.7708 0.87083 0 1.5833-0.7125 1.5833-1.5833zm4 0.0833c0-0.825-0.45-1.5-1-1.5s-1 0.675-1 1.5 0.45 1.5 1 1.5 1-0.675 1-1.5zm-55.896-1.7962c-1.2835-1.2835-2.585-0.2915-1.6348 1.246 0.36808 0.59556 1.1274 0.79971 1.6873 0.45366 0.683-0.42212 0.66575-0.98146-0.0524-1.6996h-3e-5zm6.8962 1.2962c0-0.55-1.1516-1-2.559-1-1.4514 0-2.2915 0.43284-1.941 1 0.33992 0.55 1.4915 1 2.559 1s1.941-0.45 1.941-1zm3.6042-1.7292c-0.3323-0.33229-0.56864 0.25834-0.52522 1.3125 0.048 1.165 0.28494 1.4019 0.60416 0.60417 0.28887-0.72188 0.25335-1.5844-0.0789-1.9167h-4e-5zm48.396 1.1702c0-0.85746-0.45-1.2809-1-0.94098s-1 1.0415-1 1.559 0.45 0.94098 1 0.94098 1-0.70156 1-1.559zm-71-0.77431c0-1.7064-1.0448-2.757-2.0958-2.1075-1.0088 0.62351-0.024 3.4408 1.2028 3.4408 0.49115 0 0.89301-0.6 0.89301-1.3333zm5.5-0.18037c0-0.54246-1.0125-1.1301-2.25-1.3058-2.1918-0.31129-2.961 0.77517-1.5488 2.1874 0.9743 0.97431 3.7988 0.31882 3.7988-0.8816zm3.5 0.5137c0-0.55-0.45-1-1-1s-1 0.45-1 1 0.45 1 1 1 1-0.45 1-1zm26-1c0-0.55-0.675-1-1.5-1s-1.5 0.45-1.5 1 0.675 1 1.5 1 1.5-0.45 1.5-1zm7 0c0-0.55-1.125-1-2.5-1s-2.5 0.45-2.5 1 1.125 1 2.5 1 2.5-0.45 2.5-1zm5 0c0-0.55-0.675-1-1.5-1s-1.5 0.45-1.5 1 0.675 1 1.5 1 1.5-0.45 1.5-1zm4-0.5c0-0.825-0.45-1.5-1-1.5s-1 0.675-1 1.5 0.45 1.5 1 1.5 1-0.675 1-1.5zm4 0c0-0.825-0.675-1.5-1.5-1.5-1.5616 0-1.984 1.1827-0.83333 2.3333s2.3333 0.72824 2.3333-0.83333zm4-1c0-0.825-0.45-1.5-1-1.5s-1 0.675-1 1.5 0.45 1.5 1 1.5 1-0.675 1-1.5zm4.5-0.33333c0-1.9576-1.9485-1.7917-2.3318 0.1985-0.23391 1.2146 0.11011 1.7087 0.98631 1.4167 0.74002-0.24667 1.3455-0.9735 1.3455-1.6152zm-51.946-2.0795c-1.1493-1.8596-2.3941-1.1923-1.8263 0.97896 0.35246 1.3478 0.88065 1.7257 1.5192 1.0871 0.53843-0.53843 0.67661-1.4682 0.30707-2.0661zm4.4462 1.8538c0-0.58246 0.51953-0.73793 1.1545-0.34549 0.72104 0.44563 0.88282 0.27393 0.4309-0.45729-0.39798-0.64395-1.1041-0.93568-1.5691-0.64828s-1.0473-0.0428-1.294-0.73369-0.7457-0.98314-1.1089-0.64936c-0.85818 0.78857 0.33291 3.8931 1.4936 3.8931 0.49115 0 0.89301-0.47656 0.89301-1.059zm50.604-1.6702c-1.0165-1.0165-1.8552 0.51389-1.0212 1.8634 0.63003 1.0194 0.86558 1.0202 1.2043 4e-3 0.2316-0.69479 0.14921-1.5351-0.18308-1.8674v4e-5zm-59-1c-1.0165-1.0165-1.8552 0.51389-1.0212 1.8634 0.63003 1.0194 0.86558 1.0202 1.2043 4e-3 0.2316-0.69479 0.14921-1.5351-0.18308-1.8674v4e-5zm15.396 1.7882c0-0.51754-0.45-1.2191-1-1.559s-1 0.0835-1 0.94098 0.45 1.559 1 1.559 1-0.42344 1-0.94098zm-24-2.059c0-1.1111-0.66667-2-1.5-2-1.5224 0-2.0513 2.1154-0.83333 3.3333 1.2678 1.2678 2.3333 0.65891 2.3333-1.3333zm5 0.96862c0-1.1972-2.8206-2.4813-3.6433-1.6587-0.87571 0.87571 0.60965 2.6901 2.2023 2.6901 0.79254 0 1.441-0.46412 1.441-1.0314zm30 0.03138c0-0.55-0.47656-1-1.059-1s-0.7809 0.45-0.44098 1 0.81648 1 1.059 1 0.44098-0.45 0.44098-1zm6.5-1c0-0.825-1.0125-1.6438-2.25-1.8196-1.7317-0.24594-2.25 0.17321-2.25 1.8196s0.51831 2.0655 2.25 1.8196c1.2375-0.17575 2.25-0.99455 2.25-1.8196zm5.5 0c0-1.3333-0.66667-2-2-2-1.9272 0-2.7099 1.9568-1.3333 3.3333s3.3333 0.59386 3.3333-1.3333zm4.7298-0.31071c-0.66975-2.0093-2.7298-1.8614-2.7298 0.19599 0 1.4381 0.46137 1.8749 1.5423 1.4601 0.84825-0.3255 1.3826-1.0708 1.1875-1.6561zm-55.745 0.56071c-0.028-1.3687-1.8663-3.7017-2.4539-3.1142-0.78775 0.78775 0.46709 3.8642 1.5762 3.8642 0.49115 0 0.88612-0.3375 0.8777-0.75zm36.015-0.19098c0-0.51754-0.45-1.2191-1-1.559s-1 0.0835-1 0.94098 0.45 1.559 1 1.559 1-0.42344 1-0.94098zm23-0.5c0-0.79254-0.45-1.7191-1-2.059s-1 0.30852-1 1.441 0.45 2.059 1 2.059 1-0.64844 1-1.441zm4.7708-0.74652c-0.61807-1.8542-2.7708-2.1618-2.7708-0.39583 0 0.87083 0.7125 1.5833 1.5833 1.5833s1.4052-0.53438 1.1875-1.1875zm4.2292-0.8125c0-1.1-0.45-2-1-2s-1 0.9-1 2 0.45 2 1 2 1-0.9 1-2zm-72 0c0-0.55-0.47656-1-1.059-1s-0.7809 0.45-0.44098 1 0.81648 1 1.059 1 0.44098-0.45 0.44098-1zm24-0.94683c0-1.5141-1.3714-1.9898-2.658-0.92205-0.98712 0.81924-1.342 0.81694-1.342-0.00868 0-0.61734-0.45-1.1224-1-1.1224s-1 0.82206-1 1.8268c0 1.461 0.60079 1.7386 3 1.3865 1.65-0.24217 3-0.76423 3-1.1601zm3.6042-0.78234c-0.3323-0.33229-0.56864 0.25834-0.52522 1.3125 0.048 1.165 0.28494 1.4019 0.60416 0.60417 0.28887-0.72188 0.25335-1.5844-0.0789-1.9167h-4e-5zm47.853 0.66007c-0.85723-1.387-1.4573-1.1284-1.4573 0.62812 0 0.85746 0.45734 1.2764 1.0163 0.9309s0.75742-1.047 0.44098-1.559zm-59.853-1.6601c-1.0165-1.0165-1.8552 0.51389-1.0212 1.8634 0.63003 1.0194 0.86558 1.0202 1.2043 4e-3 0.2316-0.69479 0.14921-1.5351-0.18308-1.8674v4e-5zm-3.8333 0.54167c-0.61807-1.8542-2.7708-2.1618-2.7708-0.39583 0 0.87083 0.7125 1.5833 1.5833 1.5833s1.4052-0.53438 1.1875-1.1875zm75.891-2.0625c-0.27741-0.6875-0.50439-0.125-0.50439 1.25s0.22698 1.9375 0.50439 1.25 0.27741-1.8125 0-2.5zm-80.891 1.0625c-0.61807-1.8542-2.7708-2.1618-2.7708-0.39583 0 0.87083 0.7125 1.5833 1.5833 1.5833s1.4052-0.53438 1.1875-1.1875zm32.229 0.1875c0-0.55-0.45-1-1-1s-1 0.45-1 1 0.45 1 1 1 1-0.45 1-1zm10-0.5c0-1.6996-3.5405-2.0525-4.53-0.45144-0.44899 0.72647-1.0329 0.72914-1.901 9e-3 -0.68914-0.57193-1.5491-0.74378-1.911-0.38189-1.5802 1.5798-0.34971 2.3243 3.842 2.3243 3.3333 0 4.5-0.38889 4.5-1.5zm5-0.57332c0-1.3931-0.54319-1.9672-1.6555-1.75-2.4102 0.47071-2.6347 3.8233-0.256 3.8233 1.2674 0 1.9115-0.69866 1.9115-2.0733zm4.5 0.07332c0-0.73333-0.5625-1.5208-1.25-1.75-0.74359-0.24786-1.25 0.46111-1.25 1.75s0.50641 1.9979 1.25 1.75c0.6875-0.22917 1.25-1.0167 1.25-1.75zm3.5-0.5c0-1.375-0.45-2.5-1-2.5-1.1172 0-1.3707 3.296-0.33333 4.3333 1.1023 1.1023 1.3333 0.78473 1.3333-1.8333zm-60.817-0.71667c-0.71756-0.71756-1.1833-0.7766-1.1833-0.15 0 1.3348 1.1826 2.5174 1.85 1.85 0.28417-0.28416-0.0158-1.0492-0.66667-1.7zm65.972-0.31958c-0.44839-2.5517-0.77086-2.8251-2.5342-2.1485-2.0353 0.78102-0.87322 4.8871 1.2585 4.4469 0.99008-0.20445 1.4864-1.0988 1.2756-2.2984zm4.5132 0.95871c0.33295-0.86765-0.13118-2.3141-1.0314-3.2143-1.5156-1.5157-1.6367-1.399-1.6367 1.5775 0 3.3583 1.625 4.3551 2.6681 1.6368zm-52.668-1.9225c0-1.5556-0.56667-2.5-1.5-2.5-1.7742 0-1.8473 0.48246-0.46482 3.0657 1.3915 2.6 1.9648 2.435 1.9648-0.56574zm4 0.66667c0-2.116-0.93653-3.3239-2.0456-2.6385-0.99487 0.61487 8e-3 4.4718 1.1622 4.4718 0.48585 0 0.88337-0.825 0.88337-1.8333zm3.5884-1.9116c-1.0924-1.0924-1.8415 0.64486-1.0572 2.4518 0.74368 1.7134 0.79759 1.7118 1.2119-0.0351 0.2385-1.0056 0.16886-2.093-0.15476-2.4167v-4e-5zm3.4116 2.2449c0-0.825-0.43588-1.5-0.96862-1.5s-0.70959 0.675-0.39301 1.5 0.75246 1.5 0.96862 1.5 0.39301-0.675 0.39301-1.5zm-19-1.441c0-2.2844-1.5766-3.5531-2.5195-2.0274-0.84004 1.3592 0.1384 3.9684 1.4881 3.9684 0.56726 0 1.0314-0.87344 1.0314-1.941zm4 0.5c0-1.5012-1.7953-3.097-2.5901-2.3023-0.69748 0.69747 0.68337 3.7433 1.6971 3.7433 0.49115 0 0.89301-0.64844 0.89301-1.441zm-8.7356-0.15679c0.97315-0.97314-0.36299-3.4022-1.8714-3.4022-0.76615 0-1.393 0.6-1.393 1.3333 0 2.2148 1.9088 3.4246 3.2644 2.0689zm32.289-2.3151c-1.1493-1.8596-2.3941-1.1923-1.8263 0.97896 0.35246 1.3478 0.88065 1.7257 1.5192 1.0871 0.53843-0.53843 0.67661-1.4682 0.30707-2.0661zm3.4462 0.91287c0-1.1-0.45-2-1-2s-1 0.9-1 2 0.45 2 1 2 1-0.9 1-2zm-41.046-1.0856c-0.61391-1.1471-1.3603-1.8415-1.6587-1.5431-0.82426 0.82426 0.49605 3.6288 1.7084 3.6288 0.73956 0 0.72434-0.63946-0.0496-2.0856h-4e-5zm34.407 0.58565c-0.31659-0.825-0.97746-1.5-1.4686-1.5s-0.89301 0.675-0.89301 1.5 0.66088 1.5 1.4686 1.5c0.89459 0 1.2436-0.58629 0.89301-1.5zm13.393-0.25c0.25808-0.78365-0.55212-1.25-2.1717-1.25-1.6805 0-2.5833 0.54853-2.5833 1.5696 0 1.8806 4.1216 1.6036 4.755-0.31955zm-51.755-0.75c0-0.825-0.43588-1.5-0.96862-1.5s-0.70959 0.675-0.39301 1.5 0.75246 1.5 0.96862 1.5 0.39301-0.675 0.39301-1.5zm57 0.66667c0-1.409-1.1264-2.0554-2.5978-1.4908-2.0869 0.80084-1.6952 2.3241 0.59777 2.3241 1.1 0 2-0.375 2-0.83333zm3.7708-0.97917c0.21771-0.65313-0.31666-1.1875-1.1875-1.1875s-1.5833 0.7125-1.5833 1.5833c0 1.7659 2.1528 1.4584 2.7708-0.39583zm2.8333-1.9167c-0.3323-0.33229-0.56864 0.25834-0.52522 1.3125 0.048 1.165 0.28494 1.4019 0.60416 0.60417 0.28887-0.72188 0.25335-1.5844-0.0789-1.9167h-4e-5zm6.3958 0.6812c0-0.4587-0.48921-1.1363-1.0871-1.5059-1.3885-0.85813-3.346 1.044-2.4937 2.423 0.70978 1.1485 3.5808 0.41309 3.5808-0.91716zm-48-1.011c0-0.51754-0.675-0.94098-1.5-0.94098-1.5464 0-1.9867 1.18-0.86052 2.3062 0.79893 0.79893 2.3605-0.10419 2.3605-1.3652zm3 0.55902c0-0.825-0.45-1.5-1-1.5s-1 0.675-1 1.5 0.45 1.5 1 1.5 1-0.675 1-1.5zm4.3616 0c-0.31659-0.825-0.97746-1.5-1.4686-1.5s-0.89301 0.675-0.89301 1.5 0.66088 1.5 1.4686 1.5c0.89459 0 1.2436-0.58629 0.89301-1.5zm-16.362-0.44098c0-0.51754-0.45-1.2191-1-1.559s-1 0.0835-1 0.94098 0.45 1.559 1 1.559 1-0.42344 1-0.94098zm4 0c0-0.51754-0.45-1.2191-1-1.559s-1 0.0835-1 0.94098 0.45 1.559 1 1.559 1-0.42344 1-0.94098zm65.788-2.1418c0.15836-1.3294 0.36086-3.8797 0.45-5.6672 0.20203-4.0509 0.991-4.1312 2.456-0.25 1.4274 3.7816 4.6491 4.215 3.7167 0.5-0.35337-1.408-0.19423-2.5 0.36432-2.5 0.54548 0 1.2271 0.9 1.5148 2s1.2487 2 2.1357 2c1.2208 0 1.4602-0.60743 0.98521-2.5-0.77572-3.0907 0.20204-3.1999 2.5616-0.28596 1.6005 1.9765 2.0875 2.0798 4.5395 0.96256 1.5107-0.68832 2.456-1.5421 2.1008-1.8974s-1.1573-0.13446-1.7824 0.49063c-0.77114 0.77114-1.7216 0.8234-2.9564 0.16254-1.7526-0.93798-1.7485-1.1118 0.11143-4.7032 2.2195-4.2856 3.4517-11.189 2.2995-12.884-0.52574-0.77336-2.9743-0.97916-7.4117-0.62297l-6.6266 0.53192-2.5067 5.623c-4.311 9.6706-6.4131 22.847-3.4896 21.873 0.6875-0.22889 1.3796-1.5039 1.5379-2.8333zm5.2121-15.717c0-0.44 0.54-1.34 1.2-2 0.93333-0.93333 0.79501-1.2-0.62244-1.2-1.5207 0-1.6127-0.25278-0.55548-1.5266 1.1131-1.3412 1.4118-1.2501 2.4595 0.75 0.77679 1.4829 0.85804 2.7124 0.23303 3.5266-1.0762 1.4019-2.7146 1.6735-2.7146 0.45zm5-1.2c0-0.55 0.675-1 1.5-1s1.5 0.45 1.5 1-0.675 1-1.5 1-1.5-0.45-1.5-1zm-1-3.941c0-0.51754 0.45-1.2191 1-1.559s1 0.0835 1 0.94098-0.45 1.559-1 1.559-1-0.42344-1-0.94098zm4.5-0.05902c-0.33992-0.55-0.14148-1 0.44098-1s1.059 0.45 1.059 1-0.19844 1-0.44098 1-0.7191-0.45-1.059-1zm-8.5 23c0-0.55-0.45-1-1-1s-1 0.45-1 1 0.45 1 1 1 1-0.45 1-1zm-85-1.5c0-0.825-0.66088-1.5-1.4686-1.5-0.89459 0-1.2436 0.58629-0.89301 1.5 0.31659 0.825 0.97746 1.5 1.4686 1.5s0.89301-0.675 0.89301-1.5zm6 0.5c0-0.55-0.9-1-2-1s-2 0.45-2 1 0.9 1 2 1 2-0.45 2-1zm25 0c0-0.55-0.45-1-1-1s-1 0.45-1 1 0.45 1 1 1 1-0.45 1-1zm4 0c0-0.55-0.675-1-1.5-1s-1.5 0.45-1.5 1 0.675 1 1.5 1 1.5-0.45 1.5-1zm3 0.059c0-0.51754-0.45-1.2191-1-1.559s-1 0.0835-1 0.94098 0.45 1.559 1 1.559 1-0.42344 1-0.94098zm4-0.559c0-0.825-0.675-1.5-1.5-1.5s-1.5 0.675-1.5 1.5 0.675 1.5 1.5 1.5 1.5-0.675 1.5-1.5zm5.8118-0.76148c0.24799-1.2877-0.33248-1.7385-2.2385-1.7385-2.4447 0-3.4434 1.7966-1.8721 3.3679 1.2041 1.2041 3.76 0.19099 4.1106-1.6294zm5.1882-0.84551c0-1.0412-0.675-1.893-1.5-1.893-0.92825 0-1.5 0.94096-1.5 2.4686 0 1.7835 0.41631 2.3089 1.5 1.893 0.825-0.31659 1.5-1.4275 1.5-2.4686zm-57.396-0.62218c-1.0165-1.0165-1.8552 0.51389-1.0212 1.8634 0.63003 1.0194 0.86558 1.0202 1.2043 4e-3 0.2316-0.69479 0.14921-1.5351-0.18308-1.8674v4e-5zm62.219 0.3963c0.21801-1.1241-0.35203-1.6671-1.75-1.6671-2.2849 0-2.3512 0.11237-1.4501 2.4605 0.76147 1.9844 2.7574 1.4896 3.2001-0.79335zm3.4411 0.7351c0.32877-0.32877 0.34116-1.2665 0.0275-2.0838-0.46483-1.2113-0.7266-1.2395-1.4158-0.15224-1.4739 2.3252-0.4117 4.0361 1.3883 2.2361zm2.9356-2.6022c-0.93333-0.93333-1.2-0.66667-1.2 1.2s0.26667 2.1333 1.2 1.2 0.93333-1.4667 0-2.4zm18.8 2.2c0-0.55-0.47656-1-1.059-1s-0.7809 0.45-0.44098 1 0.81648 1 1.059 1 0.44098-0.45 0.44098-1zm-73-1c0-0.55-0.675-1-1.5-1s-1.5 0.45-1.5 1 0.675 1 1.5 1 1.5-0.45 1.5-1zm3.5 0c-0.33992-0.55-1.0415-1-1.559-1s-0.94098 0.45-0.94098 1 0.70156 1 1.559 1 1.2809-0.45 0.94098-1zm5 0c-0.33992-0.55-1.2665-1-2.059-1s-1.441 0.45-1.441 1 0.92656 1 2.059 1 1.7809-0.45 1.441-1zm7.0772 0.125c-0.29742-0.48125-1.674-0.875-3.059-0.875s-2.5182 0.39375-2.5182 0.875 1.3766 0.875 3.059 0.875 2.8157-0.39375 2.5182-0.875zm-20.577-1.125c0-0.55-0.9-1-2-1s-2 0.45-2 1 0.9 1 2 1 2-0.45 2-1zm26-0.5c0-0.825-0.45-1.5-1-1.5s-1 0.675-1 1.5 0.45 1.5 1 1.5 1-0.675 1-1.5zm3 0c0-0.825-0.45-1.5-1-1.5s-1 0.675-1 1.5 0.45 1.5 1 1.5 1-0.675 1-1.5zm-35-0.5c0-0.55-0.45-1-1-1s-1 0.45-1 1 0.45 1 1 1 1-0.45 1-1zm38.5 0c-0.33992-0.55-1.0415-1-1.559-1s-0.94098 0.45-0.94098 1 0.70156 1 1.559 1 1.2809-0.45 0.94098-1zm3.5 0.059c0-0.51754-0.45-1.2191-1-1.559s-1 0.0835-1 0.94098 0.45 1.559 1 1.559 1-0.42344 1-0.94098zm6-1.1756c0-0.48583-0.9-0.88335-2-0.88335s-2 0.63287-2 1.4064c0 0.91405 0.70014 1.2233 2 0.88337 1.1-0.28766 2-0.92053 2-1.4064v-2e-5zm5-0.44239c0-0.24252-0.70156-0.44096-1.559-0.44096s-1.2764 0.45734-0.9309 1.0163c0.57081 0.92358 2.4899 0.48015 2.4899-0.57533v-2e-5zm-43-1c0-0.24252-0.70156-0.44096-1.559-0.44096s-1.2764 0.45734-0.9309 1.0163c0.57081 0.92358 2.4899 0.48015 2.4899-0.57533v-2e-5zm4 0.55904c0-0.55-0.70156-1-1.559-1s-1.2809 0.45-0.94098 1 1.0415 1 1.559 1 0.94098-0.45 0.94098-1zm4.5 0c-0.33992-0.55-1.0415-1-1.559-1s-0.94098 0.45-0.94098 1 0.70156 1 1.559 1 1.2809-0.45 0.94098-1zm4 0c-0.33992-0.55-0.81648-1-1.059-1s-0.44098 0.45-0.44098 1 0.47656 1 1.059 1 0.7809-0.45 0.44098-1zm3 0c-0.33992-0.55-0.81648-1-1.059-1s-0.44098 0.45-0.44098 1 0.47656 1 1.059 1 0.7809-0.45 0.44098-1zm32.5 0c0-0.55-0.675-1-1.5-1s-1.5 0.45-1.5 1 0.675 1 1.5 1 1.5-0.45 1.5-1zm-53-1c0-0.55-0.675-1-1.5-1s-1.5 0.45-1.5 1 0.675 1 1.5 1 1.5-0.45 1.5-1zm57 0c0-0.55-0.45-1-1-1s-1 0.45-1 1 0.45 1 1 1 1-0.45 1-1zm4.5411-0.0665c0.36253-0.58659 0.4535-1.2722 0.20214-1.5235-0.69747-0.69751-3.7433 0.68334-3.7433 1.697 0 1.2518 2.7433 1.1174 3.5411-0.17352v3e-5zm-67.041-0.9335c-0.33992-0.55-1.0415-1-1.559-1s-0.94098 0.45-0.94098 1 0.70156 1 1.559 1 1.2809-0.45 0.94098-1zm30.688 0.31689c-0.72188-0.28887-1.5844-0.25335-1.9167 0.0789s0.25834 0.56864 1.3125 0.52522c1.165-0.048 1.4019-0.28494 0.60417-0.60416v4e-5zm3.8125-0.31689c0-0.55-0.45-1-1-1s-1 0.45-1 1 0.45 1 1 1 1-0.45 1-1zm4-0.55902c0-0.24254-0.45-0.44098-1-0.44098s-1 0.47656-1 1.059 0.45 0.7809 1 0.44098 1-0.81648 1-1.059zm-43-0.38196c0-1.1799-1.9504-2.442-2.6667-1.7257s0.54583 2.6667 1.7257 2.6667c0.51754 0 0.94098-0.42344 0.94098-0.94098zm18.104-1.3552c-1.2835-1.2835-2.585-0.2915-1.6348 1.246 0.36808 0.59556 1.1274 0.79971 1.6873 0.45366 0.683-0.42212 0.66575-0.98146-0.0524-1.6996h-3e-5zm5.8962 1.2648c0-1.1972-2.8206-2.4813-3.6433-1.6587-0.87571 0.87571 0.60965 2.6901 2.2023 2.6901 0.79254 0 1.441-0.46412 1.441-1.0314zm3 0.0904c0-0.51754-0.45-1.2191-1-1.559s-1 0.0835-1 0.94098 0.45 1.559 1 1.559 1-0.42344 1-0.94098zm20 0.10765c0-0.45834-0.675-0.83334-1.5-0.83334s-1.5 0.375-1.5 0.83334 0.675 0.83333 1.5 0.83333 1.5-0.375 1.5-0.83333zm6-0.16667c0-0.55-0.87344-1-1.941-1s-2.2191 0.45-2.559 1c-0.35052 0.56716 0.48962 1 1.941 1 1.4075 0 2.559-0.45 2.559-1zm4.5 0c0.33992-0.55-0.0835-1-0.94098-1s-1.559 0.45-1.559 1 0.42344 1 0.94098 1 1.2191-0.45 1.559-1zm5.5-1.6903c0-1.9684-2.4121-1.097-2.8226 1.0197-0.225 1.1601 0.15332 1.481 1.25 1.0601 0.86496-0.33191 1.5726-1.2678 1.5726-2.0798zm18 0.69032c0-1.1111-0.66667-2-1.5-2-1.8082 0-1.9332 1.1668-0.3 2.8 1.6138 1.6138 1.8 1.531 1.8-0.8zm-66.5 0c-0.33992-0.55-1.2665-1-2.059-1s-1.441 0.45-1.441 1 0.92656 1 2.059 1 1.7809-0.45 1.441-1zm52.044-1.9292c-0.98324-1.5909-2.5669-0.29466-1.8673 1.5284 0.38476 1.0027 0.92908 1.1952 1.5692 0.55511 0.53905-0.53905 0.6732-1.4766 0.29812-2.0835zm9.9562 1.9292c0.33992-0.55-0.057-1-0.88197-1s-1.7781 0.45-2.118 1 0.057 1 0.88197 1 1.7781-0.45 2.118-1zm-67.5-1.5c-0.68469-0.825-1.6398-1.5-2.1224-1.5s-0.87756 0.675-0.87756 1.5c0 0.86218 0.90249 1.5 2.1224 1.5 1.7732 0 1.9176-0.2468 0.87756-1.5zm27 1.0818c0-1.4857-1.3519-3.4823-2.0611-3.044-1.0344 0.6393-0.082 3.4622 1.1681 3.4622 0.49115 0 0.89301-0.1882 0.89301-0.41821zm3-1.6408c0-0.51754-0.45-0.94098-1-0.94098s-1 0.70156-1 1.559 0.45 1.2809 1 0.94098 1-1.0415 1-1.559zm31.878 1.1555c0.75796-0.48009 1.081-1.3535 0.71797-1.941-0.87544-1.4165-3.5961-0.31835-3.5961 1.4515 0 1.5926 0.89593 1.745 2.8781 0.4895zm-67.107-1.284c-0.61807-1.8542-2.7708-2.1618-2.7708-0.39583 0 0.87083 0.7125 1.5833 1.5833 1.5833s1.4052-0.53438 1.1875-1.1875zm26.833-1.5417c-1.0165-1.0165-1.8552 0.51389-1.0212 1.8634 0.63003 1.0194 0.86558 1.0202 1.2043 4e-3 0.2316-0.69479 0.14921-1.5351-0.18308-1.8674v4e-5zm11.896 1.7292c-0.33992-0.55-1.0415-1-1.559-1s-0.94098 0.45-0.94098 1 0.70156 1 1.559 1 1.2809-0.45 0.94098-1zm4.5 0c0-0.55-0.675-1-1.5-1s-1.5 0.45-1.5 1 0.675 1 1.5 1 1.5-0.45 1.5-1zm5.7791-0.83737c0.21315-0.63945-0.5234-1.1626-1.6368-1.1626-2.0684 0-3.5199 1.2891-2.547 2.262 0.89813 0.89813 3.7694 0.14362 4.1838-1.0994zm-29.779-0.16263c0-0.55-0.70156-1-1.559-1s-1.2809 0.45-0.94098 1 1.0415 1 1.559 1 0.94098-0.45 0.94098-1zm3.5 0c-0.33992-0.55-0.81648-1-1.059-1s-0.44098 0.45-0.44098 1 0.47656 1 1.059 1 0.7809-0.45 0.44098-1zm30.75-0.5137c-0.3684-1.4534-2.5123-1.1994-3.0318 0.3592-0.29207 0.8762 0.20206 1.2202 1.4167 0.98631 1.0258-0.19756 1.7527-0.80304 1.6152-1.3455zm18.721 0.55276c0.80907-0.51167 1.166-1.2354 0.79313-1.6082-0.9151-0.91509-3.7642 0.24885-3.7642 1.5378 0 1.2701 1.0353 1.2946 2.971 0.0704v4e-5zm-76.971-0.98004c0-0.51754-0.45-1.2191-1-1.559s-1 0.0835-1 0.94098 0.45 1.559 1 1.559 1-0.42344 1-0.94098zm15-0.0904c0-1.1972-2.8206-2.4813-3.6433-1.6587-0.87571 0.87571 0.60965 2.6901 2.2023 2.6901 0.79254 0 1.441-0.46412 1.441-1.0314zm4 0.03138c0-0.55-0.675-1-1.5-1s-1.5 0.45-1.5 1 0.675 1 1.5 1 1.5-0.45 1.5-1zm44-1.0276c0-0.50028-0.67242-0.65157-1.4943-0.3362s-1.2407 0.98359-0.9309 1.4849c0.64806 1.0486 2.4252 0.20682 2.4252-1.1487zm-54-0.47237c0-0.825-0.675-1.5-1.5-1.5-1.5616 0-1.984 1.1827-0.83333 2.3333s2.3333 0.72824 2.3333-0.83333zm58 0.5c0-0.55-0.45-1-1-1s-1 0.45-1 1 0.45 1 1 1 1-0.45 1-1zm14.5 0c0.33992-0.55-0.0835-1-0.94098-1s-1.559 0.45-1.559 1 0.42344 1 0.94098 1 1.2191-0.45 1.559-1zm-49.677-1.6789c-0.42944-2.2299-2.208-2.278-2.633-0.0711-0.2108 1.0946 0.27967 1.75 1.3096 1.75 1.0034 0 1.5203-0.65585 1.3233-1.6789zm3.2705-2.6273c-0.79171-0.79171-1.0938-0.53223-1.0938 0.93955 0 2.6438 1.3984 4.047 1.8438 1.8502 0.18908-0.93276-0.14842-2.1881-0.75-2.7897zm3.5104 1.577c-0.3323-0.33229-0.56864 0.25834-0.52522 1.3125 0.048 1.165 0.28494 1.4019 0.60416 0.60417 0.28887-0.72188 0.25335-1.5844-0.0789-1.9167h-4e-5zm4.3958 1.2292c0-0.825-0.45-1.5-1-1.5s-1 0.675-1 1.5 0.45 1.5 1 1.5 1-0.675 1-1.5zm4 0.5c0-0.55-0.675-1-1.5-1s-1.5 0.45-1.5 1 0.675 1 1.5 1 1.5-0.45 1.5-1zm5 0c1.213-0.78387 1.0694-0.9723-0.75-0.98469-1.2375-0.00842-2.25 0.43469-2.25 0.98469 0 1.2529 1.0612 1.2529 3 0zm20.782-0.8455c0.28658-0.86063-0.19425-1.221-1.3343-1-0.98026 0.19002-1.9839 0.95098-2.2303 1.691-0.28658 0.86063 0.19425 1.221 1.3343 1 0.98026-0.19002 1.9839-0.95098 2.2303-1.691zm-69.032-0.4045c-0.22891-0.6875-1.1648-1.3952-2.0798-1.5726-1.1601-0.225-1.481 0.15332-1.0601 1.25 0.70939 1.8486 3.7522 2.1613 3.14 0.32265zm15.25-0.80902c0-0.51754-0.9-0.94098-2-0.94098-2.206 0-2.7234 1.5738-0.75 2.2817 1.5126 0.54259 2.75-0.0607 2.75-1.3407zm4.7505 0.80902c-0.63003-1.8922-3.7505-2.1612-3.7505-0.32332 0 0.92763 0.855 1.5733 2.0833 1.5733 1.222 0 1.9113-0.51682 1.6671-1.25zm2.6112-0.25c-0.31659-0.825-0.75246-1.5-0.96862-1.5s-0.39301 0.675-0.39301 1.5 0.43588 1.5 0.96862 1.5 0.70959-0.675 0.39301-1.5zm31.638 0.5c0-0.55-0.42344-1-0.94098-1s-1.2191 0.45-1.559 1 0.0835 1 0.94098 1 1.559-0.45 1.559-1zm18.812-0.9375c0.25-0.75-0.125-1.125-0.875-0.875-0.72188 0.24063-1.5094 1.0281-1.75 1.75-0.25 0.75 0.125 1.125 0.875 0.875 0.72187-0.24063 1.5094-1.0281 1.75-1.75zm-62.812-0.5625c0-0.89831-0.90253-1.4872-2.25-1.4682-2.1937 0.031-2.2014 0.0685-0.30887 1.5 2.4106 1.8232 2.5589 1.8214 2.5589-0.0318zm48.188 0.81689c-0.72188-0.28887-1.5844-0.25335-1.9167 0.0789s0.25834 0.56864 1.3125 0.52522c1.165-0.048 1.4019-0.28494 0.60417-0.60416v4e-5zm-63.417-1.5044c-0.21771-0.65313-0.93051-1.3657-1.584-1.5836-0.73075-0.24358-0.95424 0.21359-0.58051 1.1875 0.69752 1.8177 2.7645 2.1959 2.1645 0.39606zm82.719 0.17119c-0.34546-0.55897-1.047-0.75742-1.559-0.44098-1.387 0.85723-1.1284 1.4573 0.62812 1.4573 0.85746 0 1.2764-0.45734 0.9309-1.0163zm-72.99-0.98369c-0.33992-0.55-1.293-1-2.118-1s-1.2219 0.45-0.88197 1 1.293 1 2.118 1 1.2219-0.45 0.88197-1zm33.717-2.1833c-1.5275-1.5275-2.6546-0.40039-1.8074 1.8074 0.50024 1.3036 0.93392 1.4328 1.8235 0.54313s0.88579-1.4486-0.0161-2.3506h-1e-5zm4.3903 1.6015c-0.33385-0.86998-0.60699-1.7965-0.60699-2.059s-0.45-0.19912-1 0.1408c-1.5934 0.98476-1.1572 3.5 0.60699 3.5 1.0545 0 1.3983-0.5438 1-1.5818zm6.393 0.08179c0-0.93333-0.94444-1.5-2.5-1.5s-2.5 0.56667-2.5 1.5 0.94444 1.5 2.5 1.5 2.5-0.56667 2.5-1.5zm5 0c0-0.83333-0.88889-1.5-2-1.5-1.9922 0-2.6011 1.0655-1.3333 2.3333 1.2179 1.2179 3.3333 0.68908 3.3333-0.83333zm-35.645-0.0828c1.8047-0.6925 1.0376-3.4172-0.96206-3.4172-0.76615 0-1.393 0.9-1.393 2 0 2.1921 0.13075 2.2708 2.3551 1.4172v-4e-5zm5.3747-1.1065c0.19512-0.58536-0.33925-1.3306-1.1875-1.6561-1.0809-0.41478-1.5423 0.022-1.5423 1.4601 0 2.0574 2.06 2.2053 2.7298 0.19599zm3.2702 0.18933c0-0.825-0.45-1.5-1-1.5s-1 0.675-1 1.5 0.45 1.5 1 1.5 1-0.675 1-1.5zm7.1125-1.7875c-0.81667-0.81667-1.1125-0.70476-1.1125 0.42083 0 1.9879 1.3447 3.3326 1.8417 1.8417 0.21083-0.6325-0.1173-1.6506-0.72917-2.2625zm24.888 2.4542c0-1.4072-1.1257-2.0557-2.592-1.493-0.76807 0.29473-1.1475 0.93873-0.84322 1.4311 0.69797 1.1293 3.4352 1.1786 3.4352 0.0619zm3.5438-2.0959c-0.98324-1.5909-2.5669-0.29466-1.8673 1.5284 0.38476 1.0027 0.92908 1.1952 1.5692 0.55511 0.53905-0.53905 0.6732-1.4766 0.29812-2.0835zm5.2432 0.0614c-0.17045-0.88507-1.0922-1.7599-2.0484-1.944-1.274-0.24534-1.7385 0.32779-1.7385 2.1449 0 2.0069 0.39056 2.3776 2.0484 1.944 1.1996-0.31369 1.92-1.2025 1.7385-2.1449zm-69.287 0.86778c-0.33992-0.55-1.0415-1-1.559-1s-0.94098 0.45-0.94098 1 0.70156 1 1.559 1 1.2809-0.45 0.94098-1zm15.5-0.5c0-0.825-0.675-1.5-1.5-1.5s-1.5 0.675-1.5 1.5 0.675 1.5 1.5 1.5 1.5-0.675 1.5-1.5zm18-0.059c0-0.24256-0.45-0.441-1-0.441s-1 0.47656-1 1.059 0.45 0.7809 1 0.44098 1-0.81648 1-1.059v2e-5zm39.697-0.24499c-1.4473-0.29145-1.5674-0.64709-0.60856-1.8024 0.97136-1.1704 0.88786-1.3217-0.4469-0.80946-1.6358 0.62771-2.1794 2.5446-1.0437 3.6803 0.32877 0.32877 1.3413 0.30457 2.25-0.0538 1.4796-0.58347 1.4638-0.68949-0.15087-1.0146v1e-5zm-78.514-1.4127c-0.71756-0.71756-1.1833-0.7766-1.1833-0.15 0 1.3348 1.1826 2.5174 1.85 1.85 0.28417-0.28416-0.0158-1.0492-0.66667-1.7zm9.6886-0.86694c-0.8276-0.51416-1.5194-0.42239-1.7438 0.23131-0.20454 0.59598 0.24546 1.4671 1 1.9359 0.8276 0.51416 1.5194 0.42239 1.7438-0.23131 0.20454-0.59598-0.24546-1.4671-1-1.9359zm6.1281 2.1906c0-1.2268-2.8173-2.2116-3.4408-1.2028-0.27766 0.44927-0.21707 1.1046 0.13464 1.4563 0.95302 0.95301 3.3062 0.77257 3.3062-0.25353zm37.882-2.1802c-1.5168-0.93744-3.1543-0.17707-2.3659 1.0986 0.30159 0.48798 1.2467 0.61926 2.1002 0.29174 1.2122-0.46515 1.2703-0.76946 0.26572-1.3903zm30.618 1.0732c0.33992-0.55 0.16803-1-0.38197-1s-1.2781 0.45-1.618 1-0.16803 1 0.38197 1 1.2781-0.45 1.618-1zm-24.5-0.96862c0-0.53273-0.675-0.70959-1.5-0.39301s-1.5 0.75246-1.5 0.96862 0.675 0.39301 1.5 0.39301 1.5-0.43588 1.5-0.96862zm5-0.5c0-0.89208-0.5866-1.2435-1.4943-0.89521-0.82184 0.31537-1.2453 0.97625-0.94098 1.4686 0.87262 1.4119 2.4352 1.044 2.4352-0.5734zm27.604-1.2606c-0.33229-0.33229-0.56864 0.25834-0.52522 1.3125 0.048 1.165 0.28494 1.4019 0.60416 0.60417 0.28887-0.72188 0.25335-1.5844-0.0789-1.9167h-4e-5zm-86.604 1.3516c0-0.20765-0.675-0.93775-1.5-1.6224-1.2285-1.0196-1.5-0.95124-1.5 0.37756 0 0.89234 0.675 1.6224 1.5 1.6224s1.5-0.1699 1.5-0.37756zm63-1.1224c0-0.825-0.45-1.5-1-1.5s-1 0.675-1 1.5 0.45 1.5 1 1.5 1-0.675 1-1.5zm-54.5-0.5c0.33992-0.55-0.0835-1-0.94098-1s-1.559 0.45-1.559 1 0.42344 1 0.94098 1 1.2191-0.45 1.559-1zm59.271-0.8125c0.21771-0.65313-0.31666-1.1875-1.1875-1.1875s-1.5833 0.7125-1.5833 1.5833c0 1.7659 2.1528 1.4584 2.7708-0.39583zm10.229 0.84388c0-0.53273-0.675-0.70959-1.5-0.39301s-1.5 0.75246-1.5 0.96862 0.675 0.39301 1.5 0.39301 1.5-0.43588 1.5-0.96862zm-83.5-1.0314c-0.33992-0.55-0.81648-1-1.059-1s-0.44098 0.45-0.44098 1 0.47656 1 1.059 1 0.7809-0.45 0.44098-1zm9.5 0c0-0.55-0.70156-1-1.559-1s-1.2809 0.45-0.94098 1 1.0415 1 1.559 1 0.94098-0.45 0.94098-1zm46-0.61782c1.925-0.35564 4.4-0.75574 5.5-0.88911s5.3173-1.8113 9.3717-3.7288c6.6713-3.1551 7.1248-3.5483 4.7728-4.1386-1.4294-0.35877-6.5467-0.19999-11.372 0.35283s-10.072 1.0088-11.66 1.0134l-2.8877 8e-3 0.76448-5.75c1.0021-7.5373 1.0113-8.3412 0.12562-11-0.55636-1.6702-0.36079-2.25 0.75886-2.25 2.0833 0 3.1638-2.0499 1.5923-3.021-1.0277-0.63515-0.97563-1.1121 0.25581-2.3436 0.85036-0.85036 3.2092-4.8287 5.2418-8.8408 4.5798-9.0396 5.7863-11.186 7.3408-13.059 0.67444-0.81266 2.621-4.2686 4.3256-7.68 3.5017-7.0074 15.209-19.927 22.673-25.02 3.9625-2.704 4.7815-3.7573 4.4144-5.6776-0.63289-3.3108-3.3758-3.034-11.718 1.1824-6.165 3.1161-6.5925 3.5037-3.5836 3.249 2.9462-0.24934 3.4399 0.0286 3.5872 2.0194 0.11571 1.5641-0.66348 2.7543-2.4164 3.691-1.423 0.76036-4.6122 3.2356-7.0872 5.5005-5.9675 5.4609-9.5676 7.3413-11.734 6.1289-2.7274-1.5263-9.0342 10.16-10.794 20.001-0.45068 2.52-1.4009 3.9724-3.1075 4.75-4.2496 1.9363-6.809 1.1246-4.5087-1.4299 0.4705-0.5225 1.5823-3.244 2.4706-6.0479 1.3162-4.1544 1.3949-5.6812 0.42531-8.25-0.65439-1.7335-1.5108-3.1519-1.9032-3.1519-0.93401 0-2.1858 3.842-2.2765 6.9867-0.0493 1.712-0.9643 2.9144-2.937 3.8598-2.1272 1.0194-3.8293 3.4702-6.6072 9.5133-2.058 4.4771-4.291 9.8276-4.9622 11.89-1.1657 3.5822-3.069 5.1363-3.0618 2.5 4e-3 -1.489 4.909-13.691 7.7532-19.288 1.1072-2.1789 2.8027-6.7863 3.7677-10.239s2.1418-6.5165 2.6151-6.809c1.7794-1.0998 0.76673-2.1186-1.6472-1.6571-2.8929 0.55301-8.4396-1.4638-8.6028-3.1281-0.29255-2.983 0.48785-6.4477 2.2148-9.8327 1.4668-2.8751 2.7907-3.9598 5.8327-4.7789 2.1644-0.58282 4.3016-0.99678 4.7492-0.91992s1.939 0.0857 3.314 0.0198c2.364-0.11345 2.3096-0.22491-1-2.049-1.925-1.061-4.5125-2.3991-5.75-2.9737s-2.25-1.7574-2.25-2.6284 0.45-1.3056 1-0.96573 1-0.0835 1-0.94098c0-2.637 1.5458-1.7346 3.2885 1.9197 1.1653 2.4436 2.1252 3.2998 3.2261 2.8773 1.0071-0.38648 1.4633-0.11085 1.2763 0.77128-0.16844 0.79488 0.55148 1.3883 1.7103 1.4099 1.1007 0.0205 2.4507 0.28432 3 0.58633s4.6674 0.65195 9.1511 0.77764c8.4312 0.23633 16.348-1.2158 16.348-2.9987 0-0.56126 0.43678-0.75053 0.97063-0.42059s2.4464-0.19045 4.25-1.1564l3.2794-1.7563-5.7063-0.64788c-6.4811-0.73586-12.598-4.8703-12.722-8.5987-0.0749-2.2578 4.1442-6.3226 6.5627-6.3226 1.5186 0 1.8456-1.585 0.49879-2.4174-0.4765-0.29449-1.6712 0.35395-2.655 1.441s-2.1395 1.9764-2.5684 1.9764-3.3003 2.5205-6.3809 5.6011l-5.6011 5.6011-8.2141-0.50182c-4.5178-0.276-9.058-0.65901-10.089-0.85114-1.4134-0.26327-2.219 0.62609-3.2702 3.6103-0.76715 2.1778-3.1375 6.0263-5.2674 8.5523-3.6347 4.3105-16.767 27.988-15.523 27.988 0.31461 0-0.34534 1.2883-1.4665 2.8629s-1.83 3.0715-1.575 3.3264-0.43334 2.3199-1.5295 4.5888-1.9931 5.0204-1.9931 6.1146-0.48068 2.2864-1.0682 2.6494-0.83215 1.2752-0.54368 2.027 0.13937 1.6048-0.33134 1.8958-1.396 2.7803-2.0561 5.532c-1.0852 4.5236-1.4679 5.0031-3.9935 5.0031-3.0278 0-4.0072 1.4677-4.0072 6.0051 0 4.6672 4.2812 8.6926 11.673 10.976 3.5884 1.1083 6.9779 1.7349 7.5322 1.3923s2.7503-0.0478 4.8799 0.65505c3.5717 1.1788 4.269 1.072 8.9874-1.376 5.4872-2.8469 8.804-2.5763 4.8626 0.39667-1.9964 1.5059-2.1432 1.9958-1.0076 3.3641 2.9419 3.5448 12.209 4.7915 22.072 2.9693zm-24.487-31.362c-0.95878-1.5514 1.4568-5.1734 3.2218-4.831 2.288 0.44386 2.6175 2.3153 0.7386 4.1943-1.8469 1.8469-3.0891 2.0466-3.9604 0.63674zm7-13c-0.87379-1.4138 1.2975-5.0207 3.0224-5.0207 1.7659 0 1.9384 3.1264 0.26482 4.8-1.4558 1.4558-2.4813 1.5246-3.2872 0.22067zm19.562-45.367c-2.9841-0.63446-5.6091-1.7161-5.8333-2.4036-0.48291-1.4805 2.3635-1.6988 3.2589-0.25 1.0104 1.6349 3.7878 1.1924 3.1384-0.5-0.31658-0.825-0.18787-1.5 0.28603-1.5s1.159 0.77489 1.5224 1.722c0.56605 1.4751 0.79423 1.511 1.5917 0.25 0.78118-1.2352 0.93336-1.1905 0.94621 0.27803 8e-3 0.9625 0.71687 1.75 1.5743 1.75s1.2809 0.45 0.94098 1c-0.70877 1.1468-0.31638 1.1651-7.4256-0.34643zm9.9256-1.6536c0-1.1 0.45-2 1-2s1 0.45 1 1 0.70156 1 1.559 1 1.2809 0.45 0.94098 1c-1.1526 1.8649-4.5 1.1211-4.5-1zm7 0c0-0.55 0.45-1 1-1s1 0.45 1 1-0.45 1-1 1-1-0.45-1-1zm-4-2c0-0.55 0.45-1 1-1s1 0.45 1 1-0.45 1-1 1-1-0.45-1-1zm-25.362-1.5c0.31659-0.825 1.004-1.5 1.5276-1.5s0.69496 0.41594 0.38076 0.92432 0.22175 1.1312 1.191 1.384c1.1119 0.29003 0.75889 0.50249-0.95638 0.57568-2.0312 0.0867-2.5731-0.2633-2.143-1.384zm18.362-0.5c0-0.55 0.64844-1 1.441-1s1.7191 0.45 2.059 1-0.30852 1-1.441 1-2.059-0.45-2.059-1zm16 94.883c0-0.48585-0.9-0.88337-2-0.88337s-2 0.63287-2 1.4064c0 0.91405 0.70014 1.2233 2 0.88337 1.1-0.28766 2-0.92053 2-1.4064zm24.623-0.72528c-0.075-1.0064 0.76012-1.7828 2.1265-1.9772 1.322-0.18804 2.2437-1.0131 2.2347-2.0005-0.0114-1.2511-0.22347-1.3524-0.82995-0.39658-0.96814 1.5258-4.1547 0.55295-4.1547-1.2684 0-0.69882 0.75304-1.8882 1.6734-2.643 1.4935-1.2248 1.6095-1.1243 1.0787 0.93471-0.46661 1.8101-0.31585 2.0757 0.69984 1.2328 0.71201-0.59092 1.9921-0.80674 2.8446-0.47959 2.6972 1.035 3.8812-3.2842 4.7819-17.443 0.80586-12.668 0.6784-18.736-0.63266-30.117-0.53938-4.6823-3.3934-11.969-4.6958-11.989-0.4125-6e-3 -0.75-1.5599-0.75-3.4524 0-4.2148-0.61741-4.6233-7.9999-5.2927-5.853-0.53073-5.8724-0.52342-10.243 3.851-5.9246 5.9292-7.918 9.2927-9.7487 16.449l-1.5519 6.0666 2.7298 2.8922c2.5867 2.7406 5.236 2.9541 3.0869 0.24881-1.3056-1.6435-3.6093-8.771-3.0241-9.3562 0.24643-0.24644 2.3359 3.3449 4.6432 7.9807 5.4154 10.88 6.0144 11.352 9.6256 7.5831 1.5712-1.6399 3.2225-2.9817 3.6696-2.9817 1.4535 0 0.85675 3.046-0.71487 3.649-0.84028 0.32245-1.9965 1.4621-2.5694 2.5325-1.2254 2.2897 0.22418 4.536 3.8061 5.8978 1.2601 0.4791 2.2911 1.3322 2.2911 1.8958 0 1.8798-3.8103 1.0553-6.8176-1.4752-1.6341-1.375-3.2733-2.5-3.6427-2.5-0.8253 0-0.11292 8.4083 1.7715 20.909 0.7801 5.175 1.2107 10.203 0.9568 11.174-0.34909 1.3349 0.23219 1.8458 2.3852 2.0963 4.5543 0.52992 7.1053-0.20995 6.9703-2.0216zm-84.623 1.4489c0-0.21616-0.675-0.65203-1.5-0.96862s-1.5-0.13972-1.5 0.39301 0.675 0.96862 1.5 0.96862 1.5-0.17686 1.5-0.39301zm-15.229-1.7945c-0.61807-1.8542-2.7708-2.1618-2.7708-0.39583 0 0.87083 0.7125 1.5833 1.5833 1.5833s1.4052-0.53438 1.1875-1.1875zm79.729 0.1875c0.33992-0.55-0.30852-1-1.441-1s-2.059 0.45-2.059 1 0.64844 1 1.441 1 1.7191-0.45 2.059-1zm-85.406-4.3062c-0.79171-0.79171-1.0938-0.53223-1.0938 0.93955 0 2.6438 1.3984 4.047 1.8438 1.8502 0.18908-0.93276-0.14842-2.1881-0.75-2.7897zm50.828-66.854c3.6387-7.2817 4.0874-10.808 0.74082-5.8224-3.0061 4.4787-5.6618 11.982-4.2408 11.982 0.23207 0 1.8071-2.7719 3.5-6.1597zm4.9444-2.8403c0.0808-1.9624-0.10546-2.1774-0.86637-1-0.53316 0.825-0.92302 3.3-0.86637 5.5 0.0992 3.8532 0.13102 3.8899 0.86637 1 0.41985-1.65 0.80972-4.125 0.86637-5.5zm2.5152 6.4481c0.34149-0.88992 0.17385-1.2913-0.39301-0.94098-0.5437 0.33602-0.98855 1.0344-0.98855 1.5519 0 1.4384 0.71677 1.1215 1.3816-0.61096zm-16.466-7.1981c4.0583-4.7348 5.0875-7.25 2.9666-7.25-1.971 0-8.8824 7.6894-8.8824 9.8824 0 3.2226 1.4505 2.5772 5.9157-2.6324zm28.707 1.8868c1.0999-1.0247 4.6786-3.8372 7.9526-6.25l5.9528-4.3868-13.851-0.14543-13.851-0.14542 2.3808 2.6454c1.3094 1.455 3.1413 4.3329 4.0707 6.3954 1.8968 4.2091 4.2135 4.8042 7.345 1.8868zm-12.019-2.866c-0.3323-0.33229-0.56864 0.25834-0.52522 1.3125 0.048 1.165 0.28494 1.4019 0.60416 0.60417 0.28887-0.72188 0.25335-1.5844-0.0789-1.9167h-4e-5zm-9.5717-1.8234c1.2076-1.9539 1.9684-3.7798 1.6906-4.0576-0.62885-0.62885-4.7232 5.0183-4.7232 6.5145 0 1.8485 0.74424 1.2455 3.0325-2.457zm-14.379-15.145c1.8344-0.70395 1.748-8.3888-0.12213-10.861-2.0443-2.7028-1.9772-2.9291 2.0682-6.9745 1.98-1.98 3.3525-3.8475 3.0501-4.1499s-2.8715 0.87853-5.7089 2.6244-5.4175 2.9159-5.7334 2.5999c-0.79323-0.79324 0.60835-1.9738 5.2922-4.4578 3.6583-1.9401 3.8088-2.1721 1.7612-2.716-2.4677-0.65547-2.1924-2.327 0.32239-1.9579 0.86664 0.12719 3.1258-1.3188 5.0204-3.2134 2.6003-2.6003 3.5103-4.4255 3.7126-7.4459 0.19181-2.8645 1.1-4.8334 3.1967-6.93 2.2502-2.2502 2.6202-3.1195 1.597-3.7518-0.73245-0.45268-2.2828-0.57434-3.4452-0.27036s-1.5626 0.73633-0.8893 0.96077c2.1034 0.70113 1.4494 3.5335-0.68695 2.9749-2.2396-0.58566-6.6748 3.7533-12.888 12.609-4.4625 6.3598-10.281 22.529-10.062 27.96 0.071 1.7589-0.21681 5.9777-0.63956 9.3753-1.2711 10.216-0.32722 10.471 6.6492 1.7988 3.3879-4.2114 6.7655-7.8895 7.5058-8.1736zm63.716-9.5526c1.0421-3.8886 0.70307-4.75-1.8697-4.75-1.8756 0-2.5 0.5262-2.5 2.107 0 1.462 0.45915 1.9308 1.5 1.5314 0.825-0.31658 1.5-0.13972 1.5 0.39301s-0.45 0.96862-1 0.96862-1 0.45-1 1c0 1.9805 2.7804 0.9491 3.3697-1.25zm-6.5754-0.70765c-1.0359-1.6587-0.86225-2.3412 1.1371-4.4694l2.3597-2.5118-2.3956-1.0735c-1.3176-0.59045-3.5206-1.7194-4.8956-2.5087s-3.2875-1.1897-4.25-0.88968c-2.17 0.67641-2.1981 0.0243-0.13499-3.1244 2.2556-3.4424 4.7429-3.0722 6.9549 1.0352 1.0367 1.925 2.2954 3.5 2.7972 3.5 1.3548 0 3.5646-3.241 3.601-5.2814 0.0175-0.97977 0.7068-2.0404 1.5318-2.357 1.9813-0.7603 1.9166-2.9878-0.10931-3.7652-1.2584-0.48291-1.4611-1.4078-0.92934-4.2421 0.61818-3.2952 0.49602-3.5764-1.3442-3.0952-1.1133 0.29113-2.8326-0.0838-3.8207-0.83309-2.6874-2.0381-5.5222-1.7106-9.2965 1.074-3.8793 2.8621-7.1738 3.2005-9.0577 0.93048-0.71642-0.86324-2.0924-1.363-3.0578-1.1105-2.2042 0.57641-5.8846-1.9211-5.8846-3.9933 0-1.1297-0.62056-1.3936-2.25-0.95695-1.2375 0.33164-2.7409 0.60913-3.3409 0.61664s-3.005 1.89-5.3446 4.1833c-5.309 5.2041-11.314 14.338-8.1337 12.373 0.512-0.31644 1.2136-0.11799 1.559 0.44098 0.34995 0.56623-0.30988 1.0163-1.4899 1.0163-1.2166 0-1.8435 0.44422-1.4729 1.0438 0.35481 0.5741 0.13452 1.659-0.48954 2.411-0.77999 0.93983-0.8069 1.5697-0.0861 2.0152 1.9005 1.1746 1.2134 3.7171-0.82939 3.0688-1.4462-0.45902-1.9925 3e-3 -2.3764 2.0114-0.70885 3.7081 1.2562 4.0589 8.8227 1.575 3.5605-1.1688 7.1089-2.1252 7.8853-2.1252s1.69-0.87698 2.0302-1.9488c0.62596-1.9722 4.162-3.7388 5.2686-2.6321 0.3309 0.3309-0.26551 1.2577-1.3254 2.0595-1.8948 1.4335-1.8936 1.4579 0.073 1.4581 3.0575 3e-4 6.8426-3.9266 8.8492-9.1808 1.8106-4.7411 3.2494-6.4906 4.3952-5.3448 0.33623 0.33623-0.40297 2.416-1.6427 4.6218-2.6376 4.6929-2.3772 6.4155 0.97438 6.4455 1.9856 0.0178 2.4795 0.59539 2.7315 3.1944 0.4026 4.1527 6.1115 7.9314 12.451 8.2413 1.4989 0.0733 1.578-0.203 0.5359-1.8717zm-44.794-11.042c0-0.55 0.45-1 1-1s1 0.45 1 1-0.45 1-1 1-1-0.45-1-1zm6-2.9182c0-0.38918 1.3055-1.9584 2.9011-3.487 2.7437-2.6286 6.5804-3.2557 6.6142-1.081 8e-3 0.54246 0.37248 1.5488 0.80902 2.2363 1.1737 1.8484-0.16772 3.437-2.0246 2.3978-0.86184-0.48231-3.0818-0.53527-4.9333-0.11769s-3.3664 0.44082-3.3664 0.0516v4e-5zm36-6.3882c-4.2282-1.4419-5.388-5.1182-1.9582-6.2068 1.6304-0.51745 2.9806 0.11192 5.5194 2.5726 4.8229 4.6745 3.487 6.0378-3.5612 3.6343zm-37-1.5896c0-0.55117 1.5411-2.1776 3.4246-3.6142 2.7084-2.0658 4.3274-2.547 7.7414-2.3009 4.864 0.35063 6.4183 2.8929 2.915 4.7678-2.8103 1.504-14.081 2.4223-14.081 1.1472zm-13.338 15.646c-0.27741-0.6875-0.50439-0.125-0.50439 1.25s0.22698 1.9375 0.50439 1.25 0.27741-1.8125 0-2.5zm33.15-0.6875c0.25-0.75-0.125-1.125-0.875-0.875-0.72188 0.24062-1.5094 1.0281-1.75 1.75-0.25 0.75 0.125 1.125 0.875 0.875 0.72187-0.24063 1.5094-1.0281 1.75-1.75zm30.193-1.0544c0.42425 0.68645 1.301 0.92076 1.9483 0.5207 0.86692-0.53579 0.76826-1.179-0.37454-2.4418-1.1844-1.3087-1.2747-1.9912-0.38181-2.8841 0.64332-0.64332 0.88643-1.4529 0.54023-1.7991-0.79357-0.79357-4.7389 5.5788-4.7031 7.5961 0.0199 1.117 0.3041 1.0225 1.1131-0.36998s1.285-1.5487 1.8578-0.62188zm4.995-4.0672c0-0.58246-0.45-0.7809-1-0.44098s-1 0.81648-1 1.059 0.45 0.44098 1 0.44098 1-0.47656 1-1.059zm-26.5-16.941c0.35052-0.56716-0.48962-1-1.941-1-1.4075 0-2.559 0.45-2.559 1s0.87344 1 1.941 1 2.2191-0.45 2.559-1zm-2.5-2.9686c0-0.53273-0.675-0.70959-1.5-0.39301s-1.5 0.75246-1.5 0.96862 0.675 0.39301 1.5 0.39301 1.5-0.43588 1.5-0.96862zm-25.487-9.1996c0.54292-1.1925 1.882-2.655 2.9756-3.25s3.0669-1.8693 4.3849-2.8318 3.3909-1.75 4.6065-1.75 3.0066-0.8801 3.9801-1.9558c1.7333-1.9152 1.6904-1.9429-2.0657-1.3333-2.1096 0.34234-4.7212 1.4474-5.8035 2.4558-2.8419 2.6476-3.9262 2.2604-3.2425-1.1577 0.32902-1.6451 0.27277-2.9418-0.125-2.8816-2.1036 0.31848-4.2232-0.24732-4.2232-1.1274 0-0.55 0.7875-1.0592 1.75-1.1316s0.175-0.44653-1.75-0.83138l-3.5-0.69975 2.5-1.1052 2.5-1.1052-2.75-0.0634c-2.8604-0.0659-3.6344 1.6522-1.6421 3.6446 0.80173 0.80173 0.80984 2.0316 0.0293 4.45-0.59323 1.8381-0.90123 4.2421-0.68445 5.3421s0.42859 3.2375 0.47067 4.75c0.0918 3.3006 1.2347 3.5574 2.5894 0.5818l3e-5 2e-5zm31.487-1.8908c0-0.58246-0.45-0.7809-1-0.44098s-1 0.81648-1 1.059 0.45 0.44098 1 0.44098 1-0.47656 1-1.059zm12.5-2.941c-0.33992-0.55-1.0415-1-1.559-1s-0.94098 0.45-0.94098 1 0.70156 1 1.559 1 1.2809-0.45 0.94098-1zm-15.5-1.059c0-0.58246-0.45-0.7809-1-0.44098s-1 0.81648-1 1.059 0.45 0.44098 1 0.44098 1-0.47656 1-1.059zm2.5-2.941c0.33992-0.55-0.0835-1-0.94098-1s-1.559 0.45-1.559 1 0.42344 1 0.94098 1 1.2191-0.45 1.559-1zm-2.5-2.607c0-0.21615-0.675-0.39301-1.5-0.39301s-1.5 0.43588-1.5 0.96862 0.675 0.70959 1.5 0.39301 1.5-0.75246 1.5-0.96862zm5-0.95203c0-0.85746-0.45734-1.2764-1.0163-0.9309s-0.75742 1.047-0.44098 1.559c0.85723 1.387 1.4573 1.1284 1.4573-0.62812zm-10.693-4.5057c0.5956-2.2776-1.4917-2.6221-3.226-0.53249-0.89398 1.0772-0.86437 1.5231 0.12755 1.9211 0.71046 0.28506-0.1442 0.55382-1.8992 0.59724-4.0551 0.10033-5.2439 1.8292-1.576 2.2918 3.1028 0.39136 5.814-1.3729 6.5736-4.2776zm-11.807 1.0648c0.731-1.1828-0.24752-1.1828-3 0-1.9282 0.82859-1.9214 0.86195 0.19098 0.92971 1.205 0.0387 2.4691-0.37971 2.809-0.92971zm-3.2617-2.7073c-1.2439-0.23919-3.0439-0.23011-4 0.0202s0.0617 0.446 2.2617 0.4349 2.9822-0.21589 1.7383-0.45508v-2e-5zm-19.178-6.5261c1.9489-1.4173 3.1423-1.6403 5-0.93436 1.3786 0.5239 4.6152 0.58227 7.4401 0.13416 2.83-0.44892 6.9394-0.37364 9.4687 0.17347 3.5913 0.77681 5.2177 0.62887 8.2832-0.75348 2.6486-1.1944 4.1333-1.4012 4.8578-0.67674 0.67233 0.67233 2.4045 0.7375 4.8713 0.18327 2.1054-0.47304 7.3584-0.73433 11.673-0.58065s9.3359-0.0376 11.157-0.42507c2.1348-0.45412 4.2535-0.21596 5.9614 0.67013 2.6351 1.3671 6.6372 1.0227 8.9161-0.76733 1.5302-1.202 38.828-3.2687 51.311-2.8433 1.375 0.04686 3.7633 0.14129 5.3074 0.20984 1.8334 0.08139 3.3275-0.61801 4.3067-2.016 1.8338-2.6181 4.8228-2.7656 6.5792-0.32476 1.7971 2.4974 4.447 3.3225 5.7249 1.7827 0.58544-0.70541 0.80835-1.5387 0.49534-1.8517s1.1033-1.7055 3.1473-3.0945c3.1218-2.1213 4.477-2.4353 8.4708-1.9623 3.321 0.39333 5.7295 0.07661 7.989-1.0506 1.8603-0.92805 4.2597-1.3564 5.6473-1.0081 1.5445 0.38765 3.0663 0.01402 4.2291-1.0383 3.1631-2.8626 13.064-5.7707 18.447-5.4183 5.1713 0.33851 7.6121-1.4192 3.6964-2.662-3.4112-1.0827-1.329-2.3673 2.4541-1.5141 1.9279 0.43482 3.5053 0.47837 3.5053 0.09678 0-1.1095-6.3442-3.0956-9.8884-3.0956-2.7913 0-3.1574 0.28036-2.6116 2 0.34913 1.1 0.34731 2-4e-3 2-1.1409 0-3.4183-2.7443-2.7948-3.3678 1.0267-1.0267-6.4215-3.6322-10.383-3.6322-3.4319 0-3.6123 0.13413-2.1488 1.5976 1.2534 1.2534 2.0406 1.3606 3.6536 0.4973 1.3689-0.73262 2.2648-0.76241 2.6809-0.08916 0.80463 1.3019-3.6741 3.0277-5.0333 1.9394-0.56636-0.45347-5.6706-1.0712-11.343-1.3728s-14.454-1.2147-19.515-2.0291c-8.7737-1.4118-17.995-1.9034-31.062-1.656-7.1031 0.13451-6.4822 1.8981 1.1398 3.2377 2.6456 0.46497 7.5733 1.461 10.95 2.2133 6.9241 1.5425 35.664 2.2358 33.503 0.80813-1.0442-0.68995-1.076-1.07-0.1382-1.6496 0.67021-0.41421 1.5335-0.2435 1.9185 0.37937 0.38726 0.6266 2.9058 1.0767 5.6382 1.0076 9.8058-0.24799 16.438 1.0331 16.438 3.1752 0 1.1616-2.7074 1.2552-3.1667 0.10944-0.61258-1.5282-7.0341 0.88324-7.5439 2.8329-0.40469 1.5476-0.81988 1.6843-2.3025 0.75835-1.3572-0.84757-2.8541-0.81645-5.9952 0.12464-4.3239 1.2955-6.5493 0.74946-3.9627-0.97228 0.98696-0.65696-2.9169-0.88587-11.863-0.69563-9.4128 0.20017-13.651 0.66508-14.412 1.5809-0.65422 0.78759-1.315 0.91322-1.6818 0.31973-0.67454-1.0914-16.739-1.7839-17.757-0.76548-0.35663 0.35663-0.34014 0.64842 0.03664 0.64842s4.06 0.90441 8.1849 2.0098c6.0546 1.6225 8.3153 1.814 11.732 0.9935 2.3275-0.55897 6.7068-1.2231 9.7318-1.4758s7.2489-0.75623 9.3865-1.1188c2.7618-0.4685 3.6852-0.33363 3.191 0.46604-0.38252 0.61894-1.5985 1.1253-2.7022 1.1253s-2.8619 0.4577-3.9072 1.0171-4.7282 1.1851-8.1843 1.3905-6.8463 0.42268-7.5338 0.4829-1.25 0.83957-1.25 1.7319c0 1.324-0.27408 1.395-1.4902 0.38571-1.7509-1.4531-37.474-0.77837-51.326 0.96947-4.574 0.57712-10.412 0.85358-12.973 0.61435s-5.1184-0.13477-5.6836 0.23213-6.1412 0.70412-12.391 0.74937c-9.5258 0.06896-11.515 0.35273-12.3 1.7544-1.2462 2.2268-4.2724 2.2509-3.4191 0.02713 0.55922-1.4573-0.0729-1.5714-5.5397-1-3.394 0.35475-14.88 0.64499-25.524 0.64499-13.817 0-19.282 0.32181-19.103 1.125 0.1375 0.61875-0.3125 1.3312-1 1.5833-0.73318 0.26883-1.25-0.35949-1.25-1.5197 0-1.7119-0.43732-1.8816-3.25-1.2618-1.7875 0.39391-9.7752 0.28394-17.75-0.24438-14.964-0.99134-32.441-0.20498-31.44 1.4147 0.67932 1.0992-2.3539 2.4424-3.3242 1.472-0.37285-0.37285-0.0563-1.0621 0.70333-1.5316 2.0896-1.2914-9.001-2.4063-17.145-1.7236-5.9935 0.50247-6.8784 0.36611-6.6072-1.0182 0.23919-1.2209 1.6905-1.6392 6.1456-1.7715 3.8071-0.113 6.1373-0.66648 6.7105-1.5939 0.72518-1.1734 1.1321-1.0734 2.3366 0.57435 1.5573 2.1303 5.799 2.3726 28.12 1.6058 4.95-0.17004 12.375-0.02771 16.5 0.31628 6.8171 0.56848 9.1849 0.61761 17 0.35271 1.375-0.04661 10.6 0.0034 20.5 0.11113 25.472 0.27716 45.304-0.83758 47.115-2.6482 0.98022-0.98022 1.832-1.1257 2.6633-0.45492 0.67217 0.54243 3.1648 1.3068 5.5393 1.6986 3.4331 0.56645 4.5655 0.37274 5.5297-0.94593 0.95805-1.3102 1.7568-1.4513 3.8058-0.67227 1.8177 0.69109 2.9378 0.64146 3.7452-0.16596 0.85824-0.85825 1.6123-0.86442 2.9577-0.02419 1.3178 0.82297 3.8108 0.84286 9.225 0.07362 4.0806-0.57977 10.007-1.0071 13.169-0.94968s5.75-0.28379 5.75-0.75831-3.2625-1.3794-7.25-2.0109-10.194-2.0067-13.792-3.056c-17.945-5.233-34.568-3.9313-45.626 3.5726-1.9863 1.348-4.1112 2.4928-4.7219 2.5441-7.3567 0.61771-9.694 0.58067-10.152-0.16091-0.29845-0.48289-2.2619-1.3409-4.3632-1.9068s-5.409-2.1067-7.3503-3.4241-4.9229-2.7013-6.6257-3.0753-3.3527-1.0954-3.6665-1.6031c-1.0066-1.6286-10.217-0.98673-15.452 1.0769-3.2226 1.2702-7.432 2-11.537 2-8.7432 0-22.669 2.5075-32.906 5.9253-7.6827 2.5649-13.557 3.0331-13.557 1.0806 0-1.5581 2.6667-2.8233 8.4532-4.0106 6.4723-1.328 12.547-3.858 12.547-5.2258 0-0.88969-5.2561-0.25341-10.5 1.2711-1.65 0.47968-5.925 1.1189-9.5 1.4204s-12.125 1.5039-19 2.672c-15.156 2.575-22 2.8489-22 0.88044 0-2.187 7.4238-3.7394 25.5-5.3325 21.301-1.8772 24.702-2.3561 28.409-4.0006 2.3699-1.0513 2.0857-1.177-3.3235-1.4698-3.2532-0.17611-11.978 0.37948-19.389 1.2346-15.914 1.8364-16.196 1.846-16.196 0.55483 0-0.55 1.2375-1.0006 2.75-1.0014 2.3776-0.0012 13.67-1.8319 21.136-3.4266 1.3125-0.28034 8.9625-0.98777 17-1.5721 15.321-1.1138 18.741-1.5156 26.114-3.068 2.475-0.52113 8.55-1.0767 13.5-1.2345s9.9-0.82364 11-1.4795c1.611-0.96058 0.0553-1.1096-8-0.76639-5.5 0.23436-12.805 0.91224-16.233 1.5064s-14.678 1.5089-25 2.0327c-21.763 1.1044-36.507 2.602-40.767 4.1409-1.65 0.59603-7.275 1.4704-12.5 1.9431-13.922 1.2594-18.199 2.0099-20.666 3.6264-1.2149 0.796-5.0494 2.0827-8.5212 2.8593s-7.8874 1.846-9.8124 2.3764c-1.925 0.53043-4.7375 1.2202-6.25 1.5329s-2.75 1.0296-2.75 1.5933 0.5758 0.89256 1.2796 0.73095 1.4913 0.15616 1.75 0.70616-0.65455 1.1556-2.0296 1.3458c-3.0213 0.41793-5 1.9125-5 3.7766 0 2.1089 3.7908 1.637 5-0.62244 0.5887-1.1 1.526-2 2.0829-2 1.1683 0 5.9171 4.8952 5.9171 6.0995 0 0.44408 1.9125 0.81622 4.25 0.82699 6.056 0.0279 12.136 0.79685 20.75 2.6241 9.4181 1.9979 50.603 3.0236 52.666 1.3116 0.95386-0.79163 1.7033-0.80059 2.6301-0.03144 0.71284 0.59161 2.1753 1.0625 3.25 1.0464s8.0289 0.32952 15.454 0.76797 19.248 0.83658 26.273 0.88472c10.443 0.07157 13.073 0.38777 14.419 1.7334 1.7046 1.7046 2.0908 1.6138 6.368-1.4967zm-76.463-4.6104c-0.34605-0.55992-0.1419-1.3192 0.45366-1.6873 1.5375-0.95022 2.5295 0.35135 1.246 1.6348-0.71818 0.71818-1.2775 0.73543-1.6996 0.05243zm80.403-1.1562c0-0.55 0.45-1 1-1s1 0.45 1 1-0.45 1-1 1-1-0.45-1-1zm-84.306-0.63948c-0.35171-0.35171-0.39562-1.034-0.0976-1.5163 0.63922-1.0342 2.4038-0.14244 2.4038 1.2148 0 1.0751-1.3554 1.2523-2.3062 0.3015zm97.806-0.36052c0.33992-0.55 1.0415-1 1.559-1s0.94098 0.45 0.94098 1-0.70156 1-1.559 1-1.2809-0.45-0.94098-1zm35.5 0.55902c0-0.24254 0.45-0.7191 1-1.059s1-0.14148 1 0.44098-0.45 1.059-1 1.059-1-0.19844-1-0.44098zm50.553-2.4736c-0.32198-0.52097-0.15917-1.2106 0.3618-1.5326s1.2106-0.15916 1.5326 0.3618 0.15917 1.2106-0.3618 1.5326-1.2106 0.15916-1.5326-0.3618zm18.893-1.1725c-0.36954-0.59792-0.17109-1.5879 0.44098-2.2 0.81716-0.81716 1.1129-0.52828 1.1129 1.0871 0 2.4145-0.51946 2.7866-1.5538 1.1129zm6.5538-0.41287c0-0.825 0.45-1.5 1-1.5s1 0.675 1 1.5-0.45 1.5-1 1.5-1-0.675-1-1.5zm-262-1c0-0.825 0.45-1.5 1-1.5s1 0.675 1 1.5-0.45 1.5-1 1.5-1-0.675-1-1.5zm20 0.56273c-6.2762-0.64214-6.6644-2.5912-0.5-2.5101 7.202 0.09483 16.304 1.2382 18.17 2.2824 2.0279 1.1349-7.5912 1.2588-17.67 0.22761zm230.12 0.06227c0.20625-0.61875 0.7125-1.125 1.125-1.125 1.1711 0 0.87974 1.4568-0.375 1.875-0.61875 0.20625-0.95625-0.13125-0.75-0.75zm-246.12-2.125c0-0.55 0.675-1 1.5-1s1.5 0.45 1.5 1-0.675 1-1.5 1-1.5-0.45-1.5-1zm6 0c0-0.55 0.675-1 1.5-1s1.5 0.45 1.5 1-0.675 1-1.5 1-1.5-0.45-1.5-1zm127-1c0-0.55 0.45-1 1-1s1 0.45 1 1-0.45 1-1 1-1-0.45-1-1zm-92-0.44098c0-1.0555 1.9191-1.4989 2.4899-0.57533 0.34546 0.55897-0.07344 1.0163-0.9309 1.0163s-1.559-0.19844-1.559-0.44098zm62.125-0.43402c0.20625-0.61875 0.7125-1.125 1.125-1.125 1.1711 0 0.87974 1.4568-0.375 1.875-0.61875 0.20625-0.95625-0.13125-0.75-0.75zm22.174-1.0172c-0.64993-1.0407-0.9296-2.1443-0.6215-2.4524 0.7144-0.7144 3.3221 1.8549 3.3221 3.2731 0 1.6826-1.4037 1.256-2.7006-0.82076zm49.297 1.0484c-0.34605-0.55992-0.1419-1.3192 0.45366-1.6873 1.5375-0.95022 2.5295 0.35135 1.246 1.6348-0.71818 0.71818-1.2775 0.73543-1.6996 0.05243zm-183.1-2.1562c0.33992-0.55 1.0415-1 1.559-1s0.94098 0.45 0.94098 1-0.70156 1-1.559 1-1.2809-0.45-0.94098-1zm126 0c-0.7292-1.1799 0.21667-3 1.559-3 0.51754 0 0.94098 0.9 0.94098 2 0 2.1091-1.4549 2.691-2.5 1zm175.5 0c0-0.55 0.45-1 1-1s1 0.45 1 1-0.45 1-1 1-1-0.45-1-1zm-306-0.94098c0-0.58246 0.45-1.059 1-1.059s1 0.19844 1 0.44098-0.45 0.7191-1 1.059-1 0.14148-1-0.44098zm195.25-0.30902c0.22891-0.6875 1.1648-1.3952 2.0798-1.5726 1.1601-0.225 1.481 0.15332 1.0601 1.25-0.70939 1.8486-3.7522 2.1613-3.14 0.32265zm6.8755 0.375c0.20625-0.61875 0.7125-1.125 1.125-1.125 1.1711 0 0.87974 1.4568-0.375 1.875-0.61875 0.20625-0.95625-0.13125-0.75-0.75zm-189.35-0.68291c-1.0415-1.0415 0.44991-4.4421 1.9482-4.4421 0.94817 0 1.2695 0.57545 0.88337 1.5818-0.33384 0.86998-0.60699 1.995-0.60699 2.5 0 1.0146-1.3514 1.2334-2.2246 0.36031zm199.22-0.44209c0-0.55 0.45-1 1-1s1 0.45 1 1-0.45 1-1 1-1-0.45-1-1zm64 0c0-0.55 0.675-1 1.5-1s1.5 0.45 1.5 1-0.675 1-1.5 1-1.5-0.45-1.5-1zm-256.31-1.6395c-0.79893-0.79893 0.10419-2.3605 1.3652-2.3605 0.51754 0 0.94098 0.675 0.94098 1.5 0 1.5464-1.18 1.9867-2.3062 0.86052zm14.306-3.3605c0-0.55 0.675-1 1.5-1s1.5 0.45 1.5 1-0.675 1-1.5 1-1.5-0.45-1.5-1zm262-5c0-0.55 0.45-1 1-1s1 0.45 1 1-0.45 1-1 1-1-0.45-1-1zm-8-0.94098c0-0.58246 0.45-1.059 1-1.059s1 0.19844 1 0.44098-0.45 0.7191-1 1.059-1 0.14148-1-0.44098zm-16-1.059c0-0.55 0.45-1 1-1s1 0.45 1 1-0.45 1-1 1-1-0.45-1-1zm-108.5 3c-0.33992-0.55-1.068-1-1.618-1s-0.72189 0.45-0.38197 1 1.068 1 1.618 1 0.72189-0.45 0.38197-1zm151.5-4.1667c0-0.45833-1.4625-0.80171-3.25-0.76305-2.5673 0.05552-2.8403 0.23057-1.2997 0.83333 2.5578 1.0007 4.5497 0.96996 4.5497-0.07029zm4.5 0.16667c-0.33992-0.55-1.2665-1-2.059-1s-1.441 0.45-1.441 1 0.92656 1 2.059 1 1.7809-0.45 1.441-1zm-11.726-1.559c-0.66187-0.66187-15.641-4.4121-17.691-4.4292-2.6665-0.02222-0.554 0.84885 6.93 2.8575 7.4472 1.9988 11.828 2.6386 10.761 1.5716zm-48.774 311.14c0-0.87083 0.7125-1.5833 1.5833-1.5833s1.4052 0.53437 1.1875 1.1875c-0.61807 1.8542-2.7708 2.1618-2.7708 0.39583zm20-1.5833c0-0.55 0.675-1 1.5-1s1.5 0.45 1.5 1-0.675 1-1.5 1-1.5-0.45-1.5-1zm-209.36-0.69385c-1.1262-1.1262-0.68589-2.3062 0.86052-2.3062 0.825 0 1.5 0.42344 1.5 0.94098 0 1.261-1.5616 2.1641-2.3605 1.3652zm252.36-1.3062c0-0.55 0.45-1 1-1s1 0.45 1 1-0.45 1-1 1-1-0.45-1-1zm-73.659-2.2571c-0.65187-1.055 1.2425-1.5349 7.909-2.0034 4.3249-0.30394 5.75-0.0739 5.75 0.92818 0 0.73275-1.0125 1.3746-2.25 1.4262-9.0359 0.37732-10.996 0.31701-11.409-0.35101zm51.659-1.1839c0-0.85746 0.45-1.559 1-1.559s1 0.42344 1 0.94098-0.45 1.2191-1 1.559-1-0.0835-1-0.94098zm-29.361-0.25287c-1.1262-1.1262-0.68589-2.3062 0.86052-2.3062 0.825 0 1.5 0.42344 1.5 0.94098 0 1.261-1.5616 2.1641-2.3605 1.3652zm-201.64-3.3062c0-0.55 0.45-1 1-1s1 0.45 1 1-0.45 1-1 1-1-0.45-1-1zm208.51-0.98369c-0.73755-1.1934 0.19857-3.0163 1.5489-3.0163 1.2168 0 1.2247 2.7066 0.0101 3.4573-0.512 0.31644-1.2136 0.11799-1.559-0.44098h-2e-5zm19.49-3.0163c0-0.55 0.45-1 1-1s1 0.45 1 1-0.45 1-1 1-1-0.45-1-1zm-193.83-4c0.50335-1.51 2.1114-1.6657 2.5833-0.25 0.22917 0.6875-0.33333 1.25-1.25 1.25s-1.5167-0.45-1.3333-1zm218.83-0.41667c0-0.87083 0.7125-1.5833 1.5833-1.5833s1.4052 0.53437 1.1875 1.1875c-0.61807 1.8542-2.7708 2.1618-2.7708 0.39583zm-236.36-0.27718c-1.1262-1.1262-0.68589-2.3062 0.86052-2.3062 0.825 0 1.5 0.42344 1.5 0.94098 0 1.261-1.5616 2.1641-2.3605 1.3652zm159.49-2.1812c0.20625-0.61875 0.7125-1.125 1.125-1.125 1.1711 0 0.87974 1.4568-0.375 1.875-0.61875 0.20625-0.95625-0.13125-0.75-0.75zm-152.53-303.97c-1.0496-1.6984 5.371-8.8302 9.6192-10.685 5.3264-2.3251 11.746-7.8838 13.763-11.917 1.7359-3.4714 10.724-8.549 15.133-8.549 3.1707 0 5.8921 2.3093 5.8921 5 0 2.591-2.6843 5-5.5714 5-2.6283 0-2.9435-0.66897-1.4133-3 0.87215-1.3286 1.0942-1.3295 1.943-0.0084 1.3549 2.1088 3.1299 0.06174 2.3923-2.7589-1.0383-3.9704-9.2913-2.5471-14.601 2.518-3.0225 2.8834-3.5844 4.5067-1.25 3.6109 0.825-0.31658 1.5-0.10778 1.5 0.464s-0.9453 1.3396-2.1007 1.7063c-3.0475 0.96724-0.70878 2.888 2.5274 2.0758 2.6821-0.67317 3.4868-3.0724 1.3232-3.9454-0.6875-0.27741-0.2375-0.53991 1-0.58333 1.5624-0.05482 2.25 0.49479 2.25 1.7986 0 3.6699-6.6979 6.4526-9.136 3.7957-1.2058-1.314-1.5658-1.3062-3.1047 0.06676-1.6543 1.476-1.6543 1.6174 0 2.848 1.3718 1.0205 1.5071 1.6781 0.63856 3.1034-1.4737 2.4182-5.2636 2.8744-6.7696 0.81481-1.0272-1.4047-1.618-1.468-3.9189-0.41967-3.2532 1.4823-3.4414 2.4887-0.60399 3.2307 2.5841 0.67576 2.045 2.7763-1.121 4.368-1.59 0.79936-2.9481 0.8693-4.171 0.21482-1.3851-0.74123-1.8133-0.60786-1.8133 0.56476 0 1.646-1.5419 2.0854-2.4069 0.68583zm8.4069-4.1506c0-1.2529-1.0612-1.2529-3 0-1.213 0.78387-1.0694 0.9723 0.75 0.98469 1.2375 0.00842 2.25-0.43469 2.25-0.98469zm10.5-6c0.33992-0.55-0.0835-1-0.94098-1s-1.559 0.45-1.559 1 0.42344 1 0.94098 1 1.2191-0.45 1.559-1zm138.11 8.1721c-0.96935-1.5684 2.0742-4.009 6.4783-5.1949 2.1971-0.59161 6.0688-2.1785 8.6039-3.5264s5.6054-2.4508 6.8228-2.4508 3.9123-1.35 5.9886-3 4.4475-3 5.2695-3 3.0301-0.94907 4.907-2.109c2.5933-1.6028 5.5421-2.2127 12.284-2.5409 9.386-0.45687 10.911 0.15443 9.0508 3.6292-1.4138 2.6418-3.3997 2.6147-2.7063-0.03683 0.47017-1.7979 0.13795-2.0187-2.6334-1.75-2.1409 0.20758-3.4895 1.0324-4.1503 2.5383-1.1742 2.6758-3.4566 3.7336-4.9133 2.277-0.74365-0.74366-0.67528-1.6702 0.23028-3.1202 1.1878-1.9021 1.1081-2.0074-1.025-1.3541-4.2435 1.2996-5.23 2.2582-5.2717 5.1229-0.0522 3.5872-3.6914 4.5616-5.1177 1.3702-0.86269-1.9304-1.0725-1.9625-3.1778-0.48722-1.6902 1.1844-2.1009 2.1902-1.6416 4.0201 0.50429 2.0093 0.24 2.4404-1.4959 2.4404-1.1596 0-2.1084-0.45-2.1084-1 0-1.3222-3.1829-1.2705-6.6849 0.10865l-2.8151 1.1086 2.2968 1.065c1.5142 0.70215 2.1957 1.7725 2 3.1414-0.2491 1.7426-1.1003 2.1185-5.2968 2.3387-2.75 0.14432-7.0855 0.523-9.6344 0.8415-2.6952 0.33678-4.8959 0.1561-5.2592-0.43178zm6.4843-2.0949c-0.77512-0.49069-2.0126-0.66066-2.75-0.3777-2.1146 0.81146-1.5769 1.3018 1.4093 1.2852 2.0014-0.01114 2.3664-0.25818 1.3407-0.90748zm11.909-0.96058c0-1.0701-4.0099-2.2286-5.1898-1.4993-0.46353 0.28647-0.58388 0.93977-0.26744 1.4518 0.73219 1.1847 5.4573 1.2259 5.4573 0.04753zm-128.66-1.6675c-0.83117-2.166 3.2558-6.2151 7.0335-6.9683 1.7184-0.34261 4.9244-1.4409 7.1244-2.4406l9.7722-4.4289c3.1747-1.4362 6.6384-2.6113 7.6971-2.6113s4.0408-1.125 6.6268-2.5 6.1533-2.5 7.9272-2.5 4.9694-0.58176 7.1011-1.2928c6.3606-2.1217 11.522-0.0177 9.8874 4.0301-0.63607 1.5746-0.80461 1.5227-1.5797-0.48727-1.3326-3.456-9.9321-2.7361-9.9321 0.83145 0 2.2457-3.0997 4.093-4.9496 2.9497-0.73801-0.45611-1.0654-1.5497-0.7275-2.4302 0.73385-1.9124-0.5301-2.0171-4.9701-0.41154-2.1413 0.77431-3.6311 2.1702-4.269 4-1.1361 3.259-3.0425 3.6847-3.785 0.84518-0.51037-1.9516-0.54128-1.9515-4.4064 0.02032-2.5437 1.2977-3.8924 2.6717-3.8924 3.9654 0 2.3176-1.8015 2.6018-3.3898 0.53477-0.9605-1.25-1.5524-1.2549-4.3884-0.03642-2.7583 1.1851-3.1816 1.7934-2.669 3.8358 0.33508 1.335 0.16337 2.7029-0.38156 3.0397-1.4905 0.92116-4.1713-0.40824-4.1713-2.0685 0-1.0477-0.63578-1.2698-2.25-0.78569-3.1509 0.94488-5.6502 3.5516-3.9938 4.1654 0.69093 0.25603 1.0019 0.87708 0.69098 1.3801-0.89988 1.456-3.4541 1.0601-4.1051-0.63629zm51.733-2.4026c-2.2198-1.3719-0.42766-3.9614 4.1534-6.0014 2.3492-1.0461 5.3037-3.0309 6.5657-4.4107s3.9377-3.0511 5.946-3.7139 5.1607-2.6708 7.0052-4.4621 4.7938-3.7934 6.554-4.4489c2.9023-1.0809 7.3505-2.9842 8.7517-3.7446 0.30323-0.16456 0.59573 1.2675 0.65001 3.1823 0.0764 2.6938-0.37053 3.6304-1.9751 4.1397-1.3813 0.43839-2.4922 0.08605-3.3266-1.055-1.5321-2.0952-4.1963-1.4153-8.4374 2.1534-2.7557 2.3188-2.8751 2.6581-1.3321 3.7863 2.0251 1.4808 1.1915 4.5285-1.2385 4.5285-0.91913 0-2.2155-0.74444-2.8808-1.6543-1.1191-1.5305-1.4974-1.5118-5.0558 0.25-4.5142 2.2351-5.3812 3.9288-2.409 4.7061 1.386 0.36245 2.0075 1.1913 1.7827 2.3773-0.42774 2.2566-6.6887 3.1588-7.9454 1.1451-0.62695-1.0046-1.2556-1.0565-2.6049-0.2152-0.97816 0.60994-1.7785 1.5849-1.7785 2.1667 0 1.6861-0.94846 2.1832-2.4247 1.2709zm12.425-5.0466c-0.33992-0.55-1.2665-1-2.059-1s-1.441 0.45-1.441 1 0.92656 1 2.059 1 1.7809-0.45 1.441-1zm11.5-8.059c0-0.58246-0.45-0.7809-1-0.44098s-1 0.81648-1 1.059 0.45 0.44098 1 0.44098 1-0.47656 1-1.059zm14-8.941c0-0.55-0.45-1-1-1s-1 0.45-1 1 0.45 1 1 1 1-0.45 1-1zm-10.784 18.155c-1.8558-1.1775-0.43833-3.9885 2.8754-5.7021 1.567-0.81035 3.3276-2.3672 3.9122-3.4598 1.3092-2.4464 7.2752-5.5794 12.485-6.5569 2.1429-0.40202 5.3721-1.6017 7.1759-2.666 4.8025-2.8335 22.76-5.745 24.528-3.9769 0.61367 0.61367 2.14 0.68488 3.8945 0.18168 1.6728-0.47976 3.1259-0.43823 3.4578 0.09882 0.50378 0.81513-1.6271 1.3942-3.8175 1.0374-0.42458-0.06916-1.2009 1.0026-1.7252 2.3816s-1.6129 2.5073-2.419 2.5073c-1.8661 0-2.9357-1.6645-1.6001-2.4899 0.55897-0.34546 1.0163-1.0034 1.0163-1.4621 0-1.5367-2.8183-1.9369-6.4933-0.92222-3.0293 0.83643-3.4395 1.2503-2.4366 2.4588 0.96056 1.1574 0.84111 1.8561-0.58711 3.4342-3.2624 3.605-7.6406 2.0127-5.4941-1.9981 0.91501-1.7097 0.77827-2.0207-0.88866-2.0207-4.66 0-12.937 5.8371-11.523 8.1258 0.9432 1.5261 4.3518 0.94466 6.3858-1.0893 1.3378-1.3378 2.1852-1.6048 2.6591-0.83805 1.0175 1.6464-3.384 4.8016-6.6982 4.8016-2.9762 0-5.044-2.4069-4.171-4.8549 0.33104-0.92829-0.10512-1.1894-1.3851-0.82935l-4.3683 1.2232c-1.375 0.3837-3.3392 1.4319-4.3648 2.3294-1.7847 1.5616-1.7237 1.6532 1.4205 2.1317 4.1494 0.63149 4.8787 2.6172 1.5229 4.1462-1.966 0.89576-3.186 0.89808-5.1357 0.0098-1.8077-0.82364-3.1266-0.86037-4.5-0.12533-2.5598 1.37-2.5155 3.2859 0.0571 2.4694 2.3516-0.74638 2.7381 1.0028 0.41821 1.893-2.0432 0.78406-2.6446 0.74996-4.2021-0.23827l5e-5 -4.8e-5zm11.784-6.2138c0-0.58246-0.45-0.7809-1-0.44098s-1 0.81648-1 1.059 0.45 0.44098 1 0.44098 1-0.47656 1-1.059zm27.264-9.5388c0.32877-0.32877 0.35122-1.2403 0.0499-2.0255-0.42038-1.0955-0.86979-1.1606-1.9311-0.27979-0.76078 0.63138-1.3832 1.5429-1.3832 2.0255 0 0.99122 2.3515 1.1928 3.2644 0.27979zm-12.264 0.59777c0-0.55 0.19844-1 0.44098-1s0.7191 0.45 1.059 1 0.14148 1-0.44098 1-1.059-0.45-1.059-1z"/>
</svg>
